<svg xmlns="http://www.w3.org/2000/svg" viewBox="0 0 956 1024"><g fill="none" fill-rule="evenodd" stroke="none" stroke-width="1"><path fill="#FAAF41" fill-rule="nonzero" d="M476.145 1023.984c-117.94-1.83-221.96-40.26-310.91-118.3-5.24-4.594-5.57-9.377-.99-14.35 21.65-23.43 43.39-46.78 64.89-70.35 3.51-3.85 5.25-4.61 9.76-.64 74.54 65.51 161.65 95.96 260.63 90.25 81.88-4.73 153.86-34.88 215.28-89.46 4.86-4.32 7.05-4.44 11.47.45 21.89 24.23 44.11 48.15 66.48 71.93 3.86 4.1 3.7 6.06-.5 9.83-57.48 51.59-123.58 87.07-198.43 105.96-42.42 10.71-80.62 15-117.69 14.67l.01.01z" transform="translate(.035 -.004)"/><g fill="#FAAF41" fill-rule="nonzero"><path d="M866.585 504.32c6.83 10.91 11.41 22.54 10.83 37.87 6.1-10.55 9.88-19.8 13.51-29.13 1.26-3.24-1.74-4.36-3.31-6.02-12.78-13.46-16.2-29.27-11.96-47.02.33-1.38 1.13-2.65 1.88-4.37 11.51 10.1 17.84 22.36 19.54 37.66 3.52-2.68 3.34-6.64 4.54-9.84 1.48-3.95 2.28-8.17 3.8-12.1 3.33-8.6 3.72-15.01-5.01-22.22-13.32-11.01-16.82-28.93-12.14-46.51 13.05 9.41 20.72 21.8 24.14 38.84 3.59-15.04 5.09-28.63 6.77-42.2.49-3.96-2.04-5-4.62-6.61-17.01-10.61-25.43-29.16-22.16-48.47 10.88 4.05 18.49 12.87 27.76 32.79 1.56-11.87.9-22.6.58-33.32-.1-3.45-3.36-3.21-5.49-4.03-15.85-6.12-25.59-17.62-29.93-33.86-.69-2.57-1.65-5.23-.23-8.34 14.27 4.36 24.96 13.11 33.56 26.8 1.32-8.47-.83-15.52-1.25-22.64-.45-7.59-2.39-12.24-11.15-15.28-17.98-6.24-27.1-20.81-29.78-39.65 10.71.69 18.24 5.87 35.09 24.04-.99-9.22-3.82-17.37-5.9-25.68-.96-3.85-4.25-2.89-6.68-3.41-18.5-3.97-30.33-15.2-36.27-32.94-.28-.84-.25-1.79-.37-2.78 13.21.93 19.74 4.4 38.02 20.47-4.16-10.96-7.79-20.42-11.33-29.92-1.34-3.6-4.38-2.61-6.97-2.75-18.58-1-31.83-10.23-40.71-26.23-.82-1.48-2.29-3.22-1.38-4.84 1.21-2.15 3.63-.95 5.4-.72 12.93 1.74 24.47 6.59 35.21 15.22-4.22-8.13-8.31-16.34-12.73-24.37-1.72-3.12-5.05-1.27-7.57-1.28-19.32-.14-36.95-11.37-43.32-28.42 14.43-1.23 26.95 2.94 39.73 11.73-4.61-9.35-10.14-16.44-15.27-23.79-1.79-2.56-3.91-1.15-6.04-.76-19.84 3.55-39.81-5.1-49.14-21.73 14.56-3.35 28-.89 42.65 6.94-5.9-9.27-12.08-15.52-17.78-22.17-2.19-2.55-4.47-1.08-6.82-.46-18.59 4.88-34.44-.2-47.93-13.44-1.14-1.12-3.16-2.19-2.6-4.2.6-2.19 2.86-1.48 4.45-1.8 12.82-2.57 25.17-1.04 37.25 4.46-7.59-7.65-13.79-16.19-24.97-19.71-15.86-4.99-25.47-16.81-29.88-32.78-.43-1.55-2.09-3.3-.26-4.77 1.3-1.05 2.82.11 4.21.55 14.94 4.69 27.32 13.16 33.56 27.66 3.83 8.89 11.2 13.57 17.27 20.14-2.94-12.53-2.92-24.6 3.04-37.24 11.12 11.59 19.02 25.2 16.08 40.12-3.09 15.67 4.72 23.8 14.61 33.41-1.86-13.27-1.35-25.52 6.42-37.04 11.73 16.18 16.31 33.09 10.02 51.87-1.37 4.11-.86 6.88 1.63 10.17 4.19 5.53 7.93 11.41 13.2 19.1-1.36-15.13 1-27.4 9.86-38.78 9.49 16.53 12.55 33.17 5.07 50.23-2.93 6.67-2.45 11.48 1.14 17.05 2.11 3.27 3.7 6.87 6.37 11.9.81-14.12 4.08-25.54 13.44-35.45 8.34 17.5 9.55 34.47.5 51.23-2.93 5.43-3.42 9.78-.61 15.19 2.36 4.54 3.77 9.57 6.33 16.28 2.52-13.89 7.09-24.85 17.46-33.68 6.11 18.9 5.43 36.13-5.82 51.92-3.04 4.26-4.08 7.87-2.4 12.83 1.92 5.64 3.11 11.53 5.04 18.93 3.9-14.25 9.38-26.03 22.19-33.88 3.72 19.28.97 36.4-12.42 50.4-4.56 4.77-6.02 8.96-4.53 15.02 1.03 4.23 1.33 8.63 2.18 14.52 5.29-10.97 11-19.81 20.75-25.16 5.52 14.04.2 35.89-12.84 48.4-4.68 4.49-6.34 8.79-5.9 14.9.45 6.18.1 12.43.76 19.16 4.4-6.81 9.15-13.23 15.86-17.73 3.42-2.29 7.27-7.05 10.84-4.81 2.91 1.83.37 7.43-.37 11.21-2.95 15.17-10.86 27.16-24 35.45-2.64 1.66-4.81 3.12-5.2 6.63-1.07 9.64-2.46 19.24-4 30.95 7.13-8.42 13.7-14.96 22.65-18.15 2.22-.79 4.6-3.34 6.81-1.47 1.96 1.65-.11 4.21-.6 6.26-4.17 17.24-13.97 30.08-30.27 37.48-3.29 1.5-4.98 3.35-5.82 6.89-1.9 7.94-4.32 15.75-7 25.29 8.25-7.43 15.76-13.46 25.57-15.16 1.8-.31 4.03-2.22 5.38-.16.69 1.04-.14 3.34-.71 4.92-6.01 16.66-16.98 28.61-33.99 34.2-4.5 1.48-6.96 3.78-8.64 8.11-2.96 7.65-6.55 15.05-10.47 23.88 6.39-4.56 11.67-8.81 18.08-10.88 6.62-2.14 13.37-3.48 21.42-2.51-9.77 18.39-23.56 29.71-43.72 31.93-4.51.5-7.13 1.85-9.25 5.78-3.71 6.87-7.97 13.45-11.65 20.61 10.94-5.95 22.28-8.72 34.5-7.04 1.66.23 3.87-.15 4.73 1.64 1.15 2.4-1.36 3.44-2.58 4.79-11.91 13.15-26.65 19.88-44.49 18.72-4.36-.28-6.74 1.11-9.18 4.49-4.65 6.46-9.8 12.57-14.88 18.72-1.31 1.59-2.99 4.36-5.36 2.25-2.31-2.06.24-4.05 1.53-5.7 4.16-5.29 8.07-10.84 12.75-15.64 5.85-6.01 7.15-11.88 1.68-18.64-1.37-.9-2.59-1.93-3.17-3.54-.45-1.18-.53-2.4-.51-3.65.4-7.41-1.15-14.95 1.41-22.22 1.33-6.37 4.04-12.06 8.49-16.86 4.2-3.99 6.96-1.33 8.67 2.39 4.11 8.94 6.1 18.35 4.99 28.75-.2-.33-.2-.7.2-1.24 8.15-10.96 7.43-21.26.93-33.44-5.77-10.82-3.46-23.45 1.18-34.87 1.16-2.86 2.58-8.14 7.8-3.64h.02zM114.965 161.62c-3.97 17.05-21.89 31.17-41.09 31.88-5.69.21-8.3 1.91-9.94 7.27-2.46 8.03-5.78 15.8-8.26 24.08 8.98-9.39 19.45-15.82 31.96-18.78 1.42-.34 2.98-1.4 4.22-.32 1.73 1.51.17 3.23-.4 4.74-6.2 16.69-17.75 27.5-35.41 30.82-4.94.93-7.27 2.85-8.19 7.69-1.35 7.05-3.29 13.98-4.46 21.4 8.94-11.66 19.47-20.73 34.02-24.53.58 17.53-13.09 36.04-31.23 41.55-5.75 1.75-7.83 4.53-8.29 10.18-.68 8.4-2.47 16.7-2.44 26.53 5.68-6.8 10.07-13.33 16.61-17.78 4.14-2.82 8.43-5.23 12.96-7.37 5.56-2.63 6.01-.02 5.03 4.34-3.89 17.22-13.44 29.94-30.3 36.08-4.63 1.68-6.17 3.82-6.03 8.49.27 9.33.08 18.67.86 28.21 4.79-11.99 11.83-21.93 22.19-29.32 1.52-1.08 3-3.32 5.1-2.25 2.09 1.06 1.18 3.57 1.22 5.44.34 18.13-6.89 32.49-22.33 42.07-4.35 2.7-5.64 5.39-4.93 10.18 1.83 12.29 3 24.68 6.45 38.67 3.81-16.52 11.01-28.87 23.82-37.73 6.2 17.41-.18 38.14-15.83 50.1-4 3.06-4.5 5.63-3.11 9.96 3.22 10.1 6.04 20.33 9.74 30.46 2.48-14.88 8.52-27.43 19.72-37.47 8.14 13.61 4.56 36.55-8.5 49.59-4.38 4.37-4.78 7.55-2.29 12.63 3.56 7.26 6.29 14.93 11.57 23.5-.45-15.69 3.94-27.96 12.39-38.94 9.64 11.25 11 33.15 1.35 47.63-4.99 7.48-4.22 12.61.53 18.98 3.21 4.31 5.72 9.14 9.1 13.52-.18-6.55-.64-12.85.49-19.15 1.13-6.37 2.59-12.6 6.03-18.25 12.75 10.44 16.94 32.97 8.71 50.81-2.35 5.08-1.57 8.13 1.58 11.88 5.29 6.29 10.36 12.77 15.48 19.21 1.21 1.52 3.1 3.33.96 5.13-2.1 1.77-3.6-.24-4.85-1.79-5-6.21-10.18-12.29-14.84-18.74-2.74-3.78-5.51-5.22-10.44-4.94-17.56 1.01-32.01-5.98-43.73-18.83-1.21-1.32-3.79-2.53-2.62-4.79.99-1.93 3.54-1.48 5.45-1.69 11.99-1.27 23.24 1 34.41 6.88-4.92-8.11-9.8-16.24-14.77-24.32-1.47-2.39-4.1-1.35-6.2-1.59-20.34-2.29-34-13.73-44.26-32.16 15.36-1.26 27.59 3.34 39.69 14.04-4.68-10.86-8.6-20.03-12.59-29.16-1.08-2.47-3.71-2.18-5.77-2.89-17.12-5.97-28.57-17.63-34.73-34.59-.59-1.61-1.84-3.46-.73-4.9 1.47-1.92 3.83-.62 5.58-.16 9.05 2.36 16.83 7.14 24.53 13.03-2.41-8.8-4.79-17.6-7.25-26.38-.73-2.6-3.38-2.66-5.32-3.62-18.21-8.97-27.93-23.86-31.05-43.8 10.6 1.45 15.36 4.43 29.94 18.77-1.41-11.02-2.76-21.17-3.96-31.34-.32-2.74-2.35-3.56-4.24-4.72-15.52-9.59-23.5-23.88-25.78-41.66-.25-1.94-1.17-4.51.4-5.69 2.1-1.58 4.21.68 6.07 1.7 9.16 4.99 15.66 12.63 21.64 21.45 0-8.86-.06-17.72.03-26.58.03-3.4-2.87-4.46-4.7-6.32-13.83-14.02-18.17-30.78-15.19-50.76 10.39 6.08 16.68 14.42 21.78 26.39 1.24-8.81 2.26-15.69 3.15-22.59.31-2.36-1.79-3.43-3.17-4.76-13.7-13.18-17.68-29.54-15.68-47.83.18-1.61-.45-4.14 1.65-4.42 1.31-.18 3.02 1.41 4.32 2.49 9.19 7.61 14.03 17.85 17.09 30.59 1.09-4.04 1.61-6.63 2.48-9.09 3.5-9.85 4.4-18.42-2.74-28.22-8.78-12.04-8.05-26.83-4.53-41.1 1-4.04 2.2-5.74 6.02-1.59 7.34 7.99 10.68 17.68 13.25 29.39 3.05-7.76 5.29-14.17 8.1-20.32 1.54-3.38.05-5.58-1.43-8.23-9.8-17.44-9-35-.93-53.14 8.32 7.69 10.87 13.79 14.39 34.02 3.35-6.28 6.26-11.96 9.4-17.52 1.77-3.12-.49-5.18-1.53-7.57-7.82-18.07-5.93-35.38 3.99-52.79 9.43 10.87 11.25 23.27 10.07 38.51 5.9-8.58 10.55-15.48 15.36-22.28 1.91-2.69-.1-4.79-.78-7-5.27-17.16-2.09-32.91 7.35-47.83 2.6-4.11 4.08-3.46 5.81.44 4.55 10.25 5.52 20.92 2.96 33.91 6.1-6.97 10.72-12.41 15.54-17.68 2.23-2.44.6-4.7.16-7.01-3.61-19.04 1.9-35.29 14.72-49.57 6.06 8.82 6.92 17.78 3.58 36.95 6.86-6.29 13.54-11.68 17.41-20.37 7.21-16.16 21.17-24.43 37.82-28.98.71 14.3-11.95 32.35-28.39 37.5-11.84 3.71-18.9 12.27-26.96 20.43 6.78-2.25 13.41-4.86 20.55-5.37 7.23-.52 14.38-.2 21.38 1.96-3.34 11.22-26.81 23.98-43.22 19.46-10.84-2.98-16.61.44-22.12 8.51-2.89 4.23-6.53 7.94-9.57 12.36 13.52-6.7 27.32-9.97 42.36-6.29-8.15 15.89-29.38 25.64-48.05 21.75-4.45-.93-6.79-.33-9.12 3.5-4 6.57-8.5 12.83-12.43 19.85 9.54-6.18 19.79-9.89 30.97-10.62 2.57-.17 6.05-1.58 7.52 1.09 1.23 2.23-1.47 4.49-2.86 6.43-9.78 13.72-23.02 21.27-40.02 20.73-5.39-.17-8.11 1.53-10.19 6.2-2.99 6.69-6.52 13.14-9.33 20.12 11.69-9.94 24.69-15.65 40.12-15.93l-.03-.06z" transform="translate(.035 -.004) translate(0 198.573)"/></g><g fill-rule="nonzero"><path fill="#D1D2D3" d="M606.2 92.436c-94.91-86.58-206.86-112.72-329.94-76.81-160.9 46.94-260.73 201.74-240.35 368.04 11.86 96.73 57.28 175.83 136.35 232.27 111.38 79.49 231.02 88.35 354.95 30.45 44.7-20.89 81.37-52.65 112.85-90.46 1.99-.45 3.55-1.58 4.86-3.09 1.67-1.97 2.7-4.41 4.65-6.15 1.95-2.57 3.71-5.27 5.85-7.7 1.42-2.56 3.21-4.87 4.83-7.29 1.47-2.22 3.04-4.36 4.48-6.6 2.32-4.63 5.1-8.99 8-13.27 10.52-18.08 18.94-37.12 25.96-56.79.77-2.16 1.01-4.35.2-6.57.8-3.12 1.49-6.28 2.42-9.36 8.36-27.84 13.26-56.34 13.87-85.34 2.15-103.06-32.77-191.82-108.98-261.33zm-222.11 582.41c-185.39 5.34-340.13-141.58-343.32-328.08-3.13-182.93 143.96-334.9 327.32-338.18 183.53-3.29 336.2 143.25 339.57 325.94 3.41 187.3-144.86 335.17-323.57 340.32z" transform="translate(.035 -.004) translate(103.145 214.008)"/><path fill="#18355F" d="M707.66 334.526c-3.37-182.69-156.04-329.23-339.57-325.94-183.36 3.28-330.45 155.25-327.32 338.18 3.19 186.5 157.93 333.42 343.32 328.08 178.71-5.15 326.98-153.02 323.57-340.32zm-330.02 325.28c-177.96 1.47-320.21-139.38-321.72-318.53-1.44-171.72 141.28-316.19 313.77-317.63 177.47-1.47 321.52 139.2 322.86 315.28 1.34 175.67-139.75 319.43-314.91 320.88z" transform="translate(.035 -.004) translate(103.145 214.008)"/><g fill="#A7A8AB"><path d="M151.094 147.98c-.21 5.41-2.83 8.46-7.67 8.75-4.95.29-8.09-2.68-8.24-7.54-.15-4.75 2.56-8.02 7.58-8.26 5-.23 7.58 2.72 8.33 7.04v.01zM194.594 338.81c-.41 5.27-3.28 8.24-8.16 8.15-4.97-.09-7.8-3.48-7.68-8.34.11-4.57 3.05-7.44 7.69-7.51 5.06-.08 7.58 3.04 8.15 7.7zM106.794 102.12c-5.18-.66-8.25-3.31-8.01-8.35.24-4.97 3.36-7.81 8.38-7.55 4.64.24 7.45 3.17 7.37 7.8-.09 4.88-2.95 7.71-7.73 8.1h-.01zM191.634 272.94c-.33 5.17-2.98 8.23-7.92 8.32-4.55.09-7.68-2.66-7.95-7.25-.28-4.87 2.41-8.29 7.41-8.55 4.94-.25 7.73 2.74 8.46 7.47v.01zM7.324.01c5.51.33 8.49 3.14 8.51 8.02.02 4.48-2.67 7.55-7.41 7.76-5.05.22-8.07-2.57-8.4-7.52C-.316 3.07 3.054.8 7.314 0l.01.01zM93.314 577.01c-.83 4.58-3.72 7.3-8.7 6.79-5.05-.52-7.47-3.93-6.85-8.83.63-5.05 4.28-7.37 9.03-6.68 4.38.63 6.98 3.55 6.52 8.73v-.01zM53.194 46.83c.33-4.85 2.57-7.97 7.25-8.07 5.08-.11 8.59 2.42 8.6 7.98 0 5.1-3.01 7.73-7.92 7.82-5.2.09-7.29-3.31-7.93-7.72v-.01zM178.294 412.06c-5.39-.42-8.25-3.03-8.14-8.11.1-4.67 2.74-7.41 7.47-7.54 5.07-.14 8.04 2.56 8.18 7.6.14 5.13-2.99 7.55-7.51 8.05zM176.834 209.36c-.55 5.23-3.46 8.07-8.37 7.74-4.85-.32-7.72-3.41-7.29-8.49.39-4.6 3.3-7.35 7.87-7.2 4.87.16 7.62 3.07 7.79 7.94v.01zM128.624 516.34c2.71 1.37 4.68 3.48 6.13 6.11.39 4.93-2.22 8.07-6.18 10.42-4.99 2.63-8.12 1.29-9.25-4.33-.79-2.54-1.16-5.09-.06-7.65.26-2.96 1.88-4.43 4.85-4.42l4.51-.12v-.01zM149.684 467.14c.59-5.45 3.37-8.44 8.3-8.26 4.41.16 7.61 2.72 7.61 7.57 0 5.02-2.87 8.04-7.83 8.16-5.06.12-7.62-2.96-8.08-7.46v-.01z" transform="translate(.035 -.004) translate(103.145 214.008) translate(553.996 18.816)"/></g><g fill="#BCBDBF"><path d="M194.16 7.53c-.6 5.15-3.14 8.41-8.05 8.3-4.7-.11-7.91-2.89-7.86-7.95.05-4.98 2.95-7.86 7.87-7.88 4.99-.03 7.39 3.19 8.04 7.53zM76.39 524.5c-.69 4.91-2.99 8.21-8.1 8.11-4.89-.1-7.96-2.96-8-7.89-.05-4.98 3.13-7.9 7.95-7.94 4.87-.04 7.53 3.08 8.16 7.72h-.01zM7.79 331.22c4.94.47 7.96 3.13 7.92 8.09-.04 4.52-2.73 7.45-7.42 7.7-5.13.28-7.97-2.69-8.27-7.53-.31-5.13 3.01-7.5 7.77-8.26zM59.06 148.68c-.36 5.52-3.34 8.34-8.22 8.15-4.88-.19-7.8-3.27-7.53-8.37.24-4.72 3.28-7.38 7.78-7.4 4.95-.02 7.67 2.99 7.97 7.62zM125.17 46.29c.3-4.72 3.11-7.51 8.04-7.47 4.62.04 7.45 2.93 7.56 7.51.12 4.92-2.76 8.13-7.69 8.19-4.84.05-7.78-2.73-7.91-8.23zM10.46 281.39c-4.9-.56-7.68-3.41-7.43-8.34.25-5 3.39-7.62 8.42-7.27 4.68.32 7.31 3.23 7.16 7.82-.15 4.88-2.95 7.67-8.15 7.79zM95.57 94.11c-.77 5.1-3.51 8.16-8.47 7.87-4.87-.28-7.86-3.36-7.48-8.4.34-4.54 3.17-7.25 7.88-7.23 5.17.02 7.42 3.26 8.07 7.76zM16.8 396.39c5 .48 7.79 3.22 7.65 8.22-.15 5.1-3.39 7.74-8.28 7.49-4.49-.23-7.37-2.95-7.3-7.71.07-5.03 2.96-7.6 7.93-7.99v-.01zM37.58 474.77c-5.27-.26-8.47-2.82-8.51-7.78-.04-4.87 2.81-7.95 7.93-7.94 4.68.01 7.57 2.76 7.84 7.3.3 4.98-2.67 7.72-7.25 8.41l-.01.01zM109.08 568.17c4.89.02 7.65 2.61 7.95 7.2.33 4.89-2.17 8.39-7.22 8.62-4.79.22-8.24-2.27-8.33-7.51-.08-4.98 2.62-7.83 7.6-8.32v.01zM25.69 201.61c4.9.41 7.62 3.1 7.38 8.18-.24 5.11-3.29 7.58-8.29 7.34-4.77-.23-7.22-3.2-7.19-7.76.03-5 2.86-7.66 8.09-7.76h.01z" transform="translate(.035 -.004) translate(103.145 214.008) translate(0 19.136)"/></g></g><g fill="#FAAF41" fill-rule="nonzero"><path d="M208.473 51.474c14.06 9.25 27.74 8.45 41.67.04 2.33 17.68 4.94 34.42 11.84 50.07 2.3 5.22 4.78 10.46 7.85 15.25 17.05 26.54 43.66 34.01 72.02 20.2 25.11-12.23 42.29-32.75 57.25-55.5 2.17-3.31 3.68-8.27 6.69-9.47 3.13-1.24 4.95 4.69 8.37 6.2 1.36.6 2.66 1.37 3.91 2.19 3.19 2.09 9.12 1.15 9.83 4.75.64 3.28-2.45 7.32-3.97 10.99-17.15 41.44-34.36 82.85-51.39 124.34-1.61 3.92-2.81 5.27-7.46 3.49-90.22-34.41-180.58-34.49-270.88-.28-4.39 1.66-6.29 1.32-8.2-3.35-17.84-43.57-35.87-87.06-54.1-130.46-2.13-5.06-1.04-6.95 3.98-7.82 5.12-.89 9.58-3.72 12.65-7.52 4.12-5.09 5.24-2.33 7.48 1.37 8.93 14.77 19.35 28.4 31.75 40.48 7.74 7.54 16.32 13.86 25.81 18.99 30.74 16.62 60.63 7.96 77.69-22.55 8.64-15.45 12.97-32.27 15.52-49.64.53-3.65 1.05-7.3 1.7-11.77h-.01z" transform="translate(.035 -.004) translate(248.083)"/><path d="M314.583 138.974c-15.41.07-27.06-7.16-36.67-18.61-2.93-3.5-3.42-5.44 1.21-8.32 18.33-11.38 31.7-27.04 39.18-47.51 1.49-4.09 1.43-6.77-1.99-10.4-9.42-9.98-7.51-25.4 3.35-33.57 10.53-7.91 25.61-5.39 32.94 5.52 7.51 11.18 4.25 26.77-8.07 32.67-6.42 3.07-6.28 6.95-5.56 12.24 2.23 16.2 7.23 31.54 14.51 46.12 2.21 4.42 1.8 6.97-2.58 9.63-11.23 6.84-22.86 12.17-36.34 12.22l.02.01zM143.523 138.954c-13.98-.26-26-5.86-37.45-13.34-4.05-2.65-2.43-5.27-1-8.23 7.09-14.67 12.17-29.98 14.51-46.13.79-5.47 1.02-9.51-5.93-12.72-12.23-5.65-15.1-21.63-7.4-32.77 7.23-10.46 22.15-13 32.44-5.53 10.79 7.84 13.1 23.88 3.81 33.55-4.07 4.24-3.48 7.49-1.81 11.81 7.65 19.73 20.59 35.18 38.44 46.32 4.94 3.08 4.35 5.02 1.17 8.79-9.66 11.48-21.39 18.47-36.8 18.26l.02-.01zM227.663.004c15.12.27 26.86 12.43 26.47 27.41-.38 14.24-12.41 25.87-26.63 25.73-15.06-.14-26.81-12.28-26.47-27.34.32-14 12.75-26.04 26.63-25.8zM458.583 51.944c-.11 14.93-11.84 26.3-26.89 26.08-14.69-.22-25.9-11.58-25.92-26.27-.02-14.85 11.66-26.59 26.51-26.62 14.66-.03 26.42 11.95 26.31 26.82l-.01-.01zM52.863 52.114c-.12 14.73-12.11 26.22-27.08 25.96-14.89-.26-25.99-11.98-25.78-27.21.2-14.28 12.24-25.89 26.66-25.71 14.78.19 26.32 12.07 26.2 26.96z" transform="translate(.035 -.004) translate(248.083)"/></g><path fill="#18355F" fill-rule="nonzero" d="M302.362 0C136.182-.358.372 135.352 0 302.142c-.38 167.13 134.75 303.05 301.68 303.431 167.78.38 303.6-134.62 303.881-302.05.29-167.9-134.83-303.16-303.2-303.521zm1.77 585.254C148.252 585.85 20.612 460.23 20.06 305.65c-.558-158.09 124.782-284.83 282.162-285.3 154.96-.46 282.81 125.39 283.321 278.91.529 158.56-124.261 285.38-281.411 285.993z" transform="translate(.035 -.004) translate(174.584 252.952)"/><path fill="#18355F" fill-rule="nonzero" d="M576.402 302.781c0 151.04-122.44 273.47-273.48 273.47-151.04 0-273.47-122.43-273.47-273.47 0-151.04 122.44-273.47 273.47-273.47 151.03 0 273.48 122.44 273.48 273.47z" transform="translate(.035 -.004) translate(174.584 252.952)"/><path fill="#FFF" fill-rule="nonzero" d="M1.42 147.16c0-7.74-.15-15.33-.44-22.78-.29-7.44-.62-15.04-.97-22.78 4.46.24 8.88.44 13.28.62 4.4.18 8.82.26 13.28.26 4.46 0 8.88-.15 13.28-.44 4.4-.29 8.82-.44 13.28-.44 10.32 0 19.14 1.35 26.47 4.05 7.33 2.7 13.34 6.54 18.03 11.52 4.69 4.99 8.12 11.08 10.29 18.29 2.17 7.21 3.25 15.33 3.25 24.36 0 11.73-2.02 21.61-6.07 29.64-4.05 8.03-9.21 14.51-15.48 19.44-6.27 4.93-13.19 8.42-20.76 10.47-7.56 2.05-14.81 3.08-21.72 3.08-3.99 0-7.91-.06-11.78-.18-3.87-.12-7.8-.18-11.79-.18H11.79c-3.87 0-7.8.12-11.79.35.35-7.27.67-14.66.97-22.16.29-7.5.44-15.13.44-22.87v-30.25h.01zm14.42 30.25c0 12.67.35 25.1 1.06 37.29 2.46.59 5.8 1.03 10.03 1.32 4.22.29 8.56.44 13.02.44 6.45 0 12.9-.76 19.35-2.29 6.45-1.52 12.22-4.4 17.33-8.62 5.1-4.22 9.26-10 12.49-17.33 3.22-7.33 4.84-16.8 4.84-28.41 0-10.2-1.26-18.59-3.78-25.15-2.52-6.57-5.98-11.75-10.38-15.57-4.4-3.81-9.65-6.45-15.74-7.92-6.1-1.46-12.78-2.2-20.05-2.2-5.28 0-10.2.18-14.78.53-4.57.35-8.68.76-12.31 1.23-.35 5.63-.62 11.52-.79 17.68-.18 6.16-.26 12.4-.26 18.73v30.25l-.03.02zM367.07 216.41c-2.21 1.08-4.87 2.04-7.99 2.89-3.12.85-6.6 1.61-10.45 2.29-3.85.68-7.88 1.02-12.07 1.02-8.95 0-17.22-1.27-24.81-3.82s-14.14-6.43-19.63-11.64c-5.5-5.21-9.8-11.58-12.92-19.12-3.12-7.53-4.67-16.12-4.67-25.75 0-9.63 1.56-18.21 4.67-25.75 3.11-7.53 7.48-13.91 13.09-19.12 5.61-5.21 12.32-9.18 20.14-11.9 7.82-2.72 16.43-4.08 25.83-4.08 7.48 0 14.3.76 20.48 2.29 6.17 1.53 11.64 3.37 16.4 5.52-.91 1.59-1.65 3.74-2.21 6.46-.57 2.72-1.02 4.99-1.36 6.8l-1.02.34c-1.13-1.36-2.72-2.89-4.76-4.59-2.04-1.7-4.42-3.34-7.14-4.93-2.72-1.59-5.78-2.92-9.18-3.99-3.4-1.08-7.14-1.61-11.22-1.61-6.69 0-12.89 1.08-18.61 3.23-5.72 2.15-10.71 5.47-14.96 9.94-4.25 4.48-7.56 10.14-9.94 17-2.38 6.86-3.57 14.99-3.57 24.39s1.19 17.53 3.57 24.39c2.38 6.86 5.69 12.52 9.94 17 4.25 4.48 9.23 7.79 14.96 9.94 5.72 2.15 11.93 3.23 18.61 3.23 4.08 0 7.84-.51 11.3-1.53 3.46-1.02 6.63-2.24 9.52-3.65 2.89-1.42 5.5-2.94 7.82-4.59 2.32-1.64 4.27-3.09 5.86-4.34l.68.68-1.53 10.03c-1.02.91-2.63 1.9-4.85 2.97h.02z" transform="translate(.035 -.004) translate(174.584 252.952) translate(105.972 130.761)"/><g stroke="#FFF" stroke-width="2" transform="translate(.035 -.004) translate(174.584 252.952) translate(105.972 130.761) translate(24.56)"><path d="M11.07 11.07 337.54 337.53"/><path d="M0 326.46 326.47 0"/></g><g fill="#FFF" fill-rule="nonzero"><path d="M93.47 112.46s58.08-57.3 64.18-68.54c0 0 3.34-2.14-1.43-9.72-4.93-7.84 32.3-34.2 32.3-34.2l2.81 2.39-24.41 26.82s-.1 3.68 2.58 2.38c1.52-.74 22.2-26.49 22.2-26.49l3.13 2.66-23.01 27.07s.92 2.72 2.19 1.86c1.27-.86 24.19-28.46 24.19-28.46l3.12 2.66s-21.77 38.47-30.04 36.09c0 0-5.77-2.35-9.58.39-5.36 3.85-57.3 74.38-57.3 74.38s-3.44 9.27-10.64 1.36c-4.68-5.15-3.52-5.15-.3-10.65h.01z" transform="translate(.035 -.004) translate(174.584 252.952) translate(105.972 130.761) translate(90.15 1.41)"/><path d="M6.52 5.47s83.7 98.54 95.42 105.9c0 0 6 6.37.33 11.16 0 0-5.63 7.58-12.94-.08-4.59-4.81-16.14-27.69-39.68-50.97-9.23-9.13-24.18-14.42-38.89-36.27C3.16 23.93-6.78.23 6.53 5.48l-.01-.01z" transform="translate(.035 -.004) translate(174.584 252.952) translate(105.972 130.761) translate(90.15 1.41)"/></g><g transform="translate(.035 -.004) translate(174.584 252.952) translate(105.972 130.761) translate(96.88 207.53)"><path stroke="#FFF" d="M90.92 0 174.51 90.92"/><path stroke="#FFF" d="M90.92 1.6 0 85.2"/><path stroke="#FFF" d="M145.02 58.92 145.02 136.08"/><path stroke="#FFF" d="M28.89 58.92 28.89 136.08"/><g fill="#FFF" fill-rule="nonzero" transform="translate(49.42 56.49)"><path d="M42.13 43.15H75.07V76.09H42.13z"/><path d="M0 42.15H32.94V75.09H0z"/><path d="M42.13 0H75.07V32.94H42.13z"/><rect width="32.94" height="32.94" x="0" y="0" rx="1.67"/></g></g></g></svg>