<?xml version="1.0" encoding="UTF-8"?><svg id="a" xmlns="http://www.w3.org/2000/svg" viewBox="0 0 1498.82 831.59"><path d="M1498.63,794.08c-2.61-.81-3.02-2.96-3.81-5.27-3.27-9.57-4.92-19.52-7.4-29.27-5.55-21.75-11.22-43.47-16.66-65.24-5.18-20.77-10.55-41.51-14.98-62.44-2.1-9.97-7.38-18.75-8.74-28.98-2.65-19.96-7.47-39.48-14.1-58.52,7.38-17.43,15.85-34.38,21.29-52.61,26.07-87.32,18.81-171.48-25.99-251.07-41.45-73.64-102.91-124.36-184.07-148.16-107.28-31.45-206.12-11.8-293.04,58.5-61.21,49.5-98.49,114.5-111.37,192.72-11.67,70.91-.3,138.17,32.97,201.78.72,1.38,1.32,2.82,1.98,4.23-8.97,2.4-17.92,4.94-26.94,7.18-15.04,3.72-30.16,7.11-45.19,10.88-26.29,6.6-52.5,13.49-78.8,20.05-18.74,4.67-37.6,8.86-56.35,13.51-19.27,4.77-38.44,9.89-57.68,14.76-19.49,4.94-39.01,9.76-58.52,14.62-18.5,4.6-36.92,9.54-55.52,13.67-14.62,3.25-29.15,6.95-43.63,10.62-19.21,4.87-38.47,9.61-57.71,14.41-18.25,4.55-36.49,9.09-54.73,13.64-19.48,4.86-38.95,9.72-58.42,14.59-14.68,3.67-29.37,7.33-44.05,11.03-13.94,3.5-27.86,7.1-41.81,10.56-19.43,4.83-38.89,9.52-58.32,14.38-13.7,3.42-27.33,7.11-41.04,10.5-19.44,4.82-38.88,9.64-58.4,14.13-12.5,2.87-24.51,8.09-37.6,8.27C.01,511.08.01,255.62.02.16c497.03,0,994.05.01,1491.08-.16,6.07,0,7.73.87,7.72,7.46-.22,262.2-.19,524.41-.19,786.62Z" style="fill:#023360; stroke-width:0px;"/><path d="M1432.94,544.36c6.63,19.04,11.45,38.57,14.1,58.52,1.36,10.24,6.64,19.01,8.74,28.98,4.42,20.93,9.8,41.67,14.98,62.44,5.43,21.78,11.11,43.49,16.65,65.24,2.48,9.75,4.14,19.7,7.41,29.27.79,2.32,1.2,4.46,3.81,5.27v37.51c-5.94-14.11-8.37-29.22-12.37-43.88-7.09-25.99-14.05-52.03-20.87-78.09-5.68-21.72-10.56-43.67-16.76-65.24-7.22-25.13-12.72-50.68-19.69-75.85-2.51-9.08-3.65-17.15,4-24.17Z" style="fill:#f9ae41; stroke-width:0px;"/><path d="M1451.79,395.19c-.27,165.54-133.29,296.47-290.38,300.57-174,4.54-309.76-136.25-309.02-301.75.75-166.23,134.17-297.6,295.19-299.91,169.38-2.43,305,135.59,304.21,301.1ZM1153.17,124.82c-148.75-3.49-269.47,124.08-270.58,267.33-1.17,150.55,122.04,273.37,268.43,273.79,149,.43,270.17-121.11,271.09-270.34.9-145.31-120.54-273.52-268.94-270.78Z" style="fill:#f9bf52; stroke-width:0px;"/><path d="M0,766.55c13.09-.18,25.1-5.39,37.6-8.27,19.52-4.49,38.96-9.31,58.4-14.12,13.71-3.39,27.34-7.08,41.04-10.51,19.42-4.85,38.89-9.54,58.31-14.37,13.95-3.47,27.87-7.06,41.82-10.57,14.68-3.69,29.36-7.36,44.05-11.03,19.47-4.87,38.94-9.73,58.42-14.59,18.24-4.55,36.49-9.09,54.73-13.64,19.24-4.8,38.5-9.54,57.72-14.41,14.48-3.67,29.01-7.37,43.62-10.62,18.6-4.13,37.02-9.07,55.52-13.68,19.51-4.86,39.03-9.68,58.52-14.61,19.24-4.87,38.42-9.99,57.68-14.77,18.75-4.65,37.61-8.84,56.36-13.51,26.3-6.56,52.51-13.45,78.8-20.05,15.03-3.77,30.15-7.16,45.19-10.88,9.02-2.23,17.97-4.78,26.95-7.18,5.77,7.45,5.55,8.7-2.91,10.86-27.8,7.09-55.66,13.94-83.46,21.03-19,4.85-37.89,10.15-56.91,14.88-30.39,7.56-60.91,14.55-91.25,22.29-19.3,4.92-38.54,10.42-57.92,14.65-23.97,5.23-47.67,11.52-71.39,17.52-26.02,6.58-52.14,12.99-78.13,19.7-23.47,6.06-46.91,12.57-70.76,17.34-18.72,3.74-37.07,9.34-55.61,14-18.5,4.65-37.04,9.12-55.54,13.76-23.03,5.78-46.02,11.74-69.07,17.46-19.04,4.73-38.16,9.18-57.22,13.84-13.31,3.26-26.59,6.67-39.88,10.01-15.53,3.9-31.05,7.86-46.61,11.69-9.49,2.33-18.96,4.88-28.57,6.57-9.27,1.63-9.35,1.2-9.49-8.8Z" style="fill:#f9ae41; stroke-width:0px;"/><path d="M1148.45,539.97c-5.4.86-11.3-2.15-17.47-6.15-12.31-8-20.28-20.7-32.38-28.8-2.25-1.51-1.32-3.44-.98-5.55,1.66-10.39-8.71-26.3-21.19-24.32-6.59,1.05-11.1-.43-14.54-7.58-4.54-9.44-19.15-12.31-28.02-6.05-5.13,3.62-8.22,2.95-12.6-.73-7.53-6.33-15.53-12.11-23.44-17.97-3.76-2.79-4.96-6.05-4.17-10.78,5.83-34.6,12.84-68.93,22.69-102.63,1.65-5.64,2.97-9.66,10.56-5.61,4.22,2.25,10.15,1.3,15.3,1.82,2.26.23,5.22-.65,6.48,1.57,1.5,2.64-1.61,4.09-2.93,5.76-4.35,5.49-8.81,10.92-13.59,16.03-3.52,3.76-5.15,7.69-3.61,12.72,1.7,5.56,6.03,7.68,11.23,8.15,15.3,1.4,29.26-2.98,42.17-10.83,13.39-8.14,25.79-17.98,42.42-19.45,5.82-.52,10.62.05,15.54,2.92,28.21,16.5,54.22,36.24,80.88,55.02,15.45,10.89,31.58,20.9,45.26,34.12,3.35,3.23,6.46,6.76,9.32,10.44,7.1,9.13,8.23,18.81,2.13,29.01-3.61,6.04-8.17,11.31-12.79,16.58-4.04,4.61-7.31,4.31-11.71.26-16.02-14.73-32.21-29.27-48.59-43.6-2.47-2.16-5.49-8.03-9-4.14-3.52,3.89,2.68,6.58,5.03,8.73,15.48,14.18,31.39,27.89,47.17,41.74,8.15,7.16,8.43,12.71.18,19.92-7.73,6.75-16.9,11.09-26.95,13.28-4.42.96-7.82-1.01-11-4.24-13.05-13.25-26.29-26.3-39.53-39.36-1.46-1.44-2.79-4.86-5.4-2.59-2.75,2.38-.24,4.71,1.56,6.53,12.18,12.33,24.43,24.57,36.6,36.91,5.5,5.58,5.35,8.59-.91,13.07-8.3,5.94-20.49,7.44-29.51-1.98-10.01-10.44-21.5-19.46-32.3-29.16-1.81-1.63-3.93-3.72-5.92-1.57-2.16,2.33.54,4.18,2.19,5.69,8.59,7.9,17.23,15.74,25.89,23.57,1.72,1.56,4.42,3.03,3.9,5.38-.68,3.04-4.29,2.39-6.6,2.97-2.98.74-6.19.54-11.35.88Z" style="fill:#f9ae41; stroke-width:0px;"/><path d="M978.86,438.47c-14.31-2.36-28.62-4.71-42.93-7.1-4.15-.69-3.76-3.3-2.77-6.42,4.31-13.55,8.48-27.15,12.72-40.72,7.72-24.71,15.7-49.35,23.03-74.18,2.21-7.48,5.82-8.35,12.27-5.82,8.43,3.3,16.99,6.31,25.61,9.1,5.16,1.68,6.68,4.23,4.98,9.68-6.77,21.77-12.23,43.89-17,66.19-3.09,14.45-7.08,28.71-8.87,43.41-.54,4.47-2.23,6.8-7.05,5.85Z" style="fill:#f9ae41; stroke-width:0px;"/><path d="M1310.43,281.04c3.58-.38,4.47,2.53,5.91,4.44,21.93,29.11,37.28,61.65,49.57,95.76,6.77,18.79,6.65,18.84-12.15,25.03-16.56,5.46-16.63,5.48-21.98-11.45-7.13-22.58-15.17-44.73-27.96-64.88-6.72-10.59-14.28-20.53-23.78-28.63-5.12-4.36-3.18-5.59,1.32-7.52,9.78-4.19,19.5-8.55,29.07-12.76Z" style="fill:#023360; stroke-width:0px;"/><path d="M1131.27,334.53c-13.65,1.89-26.6,5.22-38.19,13.68-13.27,9.69-27.41,18.08-44.84,17.7-3.44-.07-6.79-.45-9.85-1.99-5.22-2.63-6.94-6.85-2.86-11.35,19.53-21.51,38.07-44.39,68.61-51.28,12.65-2.86,24.13-9.5,36.92-12.08,9.24-1.86,18.09.8,26.97,2.28,24.06,4.02,48.02,8.62,72.07,12.73,7.99,1.36,16.2,1.43,23.93-1.27,5.79-2.02,9.97-.44,14.09,3.44,13.33,12.55,21.44,28.52,28.86,44.81,7.53,16.53,14.36,33.39,21.45,50.12,1.21,2.86,2.76,5.83-1.86,7.43-16.86,5.83-28.01,19.28-40.64,30.75-2.1,1.91-3.65,4.53-6.63.61-15.03-19.78-35.63-32.67-55.93-46.28-25.35-17-49.4-35.92-75.16-52.36-5.18-3.31-9.9-7.92-16.96-6.95Z" style="fill:#023360; stroke-width:0px;"/><path d="M1044.66,465.23c7.44.11,14.77,6.98,15.41,14.23.64,7.38-8.74,22.77-15.56,25.53-9.58,3.87-20.22-2.89-20.71-13.15-.5-10.48,10.12-25.39,18.77-26.35.77-.09,1.55-.19,2.1-.26Z" style="fill:#023360; stroke-width:0px;"/><path d="M1076.63,481.31c9.48.58,16.5,10.36,13.63,19.39-1.82,5.71-4.94,10.9-8.65,15.55-4.86,6.1-13.65,7.62-19.6,3.89-7.02-4.4-9.68-12.91-5.9-20.39,2.32-4.6,5.11-9.04,8.2-13.17,2.96-3.95,7.33-5.58,12.31-5.27Z" style="fill:#023360; stroke-width:0px;"/><path d="M1105.95,542.57c-8.46-.36-15.4-6.33-20.55-14.51-2.93-4.66-2.04-9.1,2.42-13.13,4.43-4,8.94-5.39,13.97-2.24,8.9,5.59,15.03,14.21,22.39,21.49,2.34,2.31.79,3.65-1.35,4.57-4.77,2.05-9.62,3.89-16.87,3.83Z" style="fill:#023360; stroke-width:0px;"/><path d="M994.48,463.71c.57-10.83,3.42-12.4,12.92-7.47,7.38,3.83,12.77,10.29,19.78,14.57,2.86,1.75,1.03,3.29-.21,4.9-5.23,6.86-13.82,9.58-21.49,6.78-7.12-2.6-11.47-10.02-11.01-18.78Z" style="fill:#023360; stroke-width:0px;"/><g style="opacity:.5;"><path d="M241.36,665.89c-.74-.49-1.02-.4-1.51.33-6.21,9.16-14.6,15.49-25.14,18.82-12.74,4.03-25.11,2.95-37.02-3.13-.72-.37-.93-.21-1.25.41-2.03,3.79-4.09,7.56-6.14,11.34-.43.8-.23,1.41.61,1.84,14.2,7.25,29.06,8.8,44.52,5.13,4.85-1.19,9.69-3.02,14.88-5.82,9.14-4.94,16.6-11.77,22.39-20.41.42-.63.38-.89-.26-1.3-3.71-2.37-7.4-4.75-11.07-7.19Z" style="fill:#fff; stroke-width:0px;"/><path d="M260.26,629.33c1.44-1.52,2.07-3.34,1.95-5.42-.03-.52.12-1.33-.32-1.47-.54-.18-.89.57-1.26.98-.72.82-1.13,1.81-1.48,2.84-.32-.86-.48-1.68-.74-2.48-.26-.79-.19-1.4.28-2.14,1.29-2.07,1.25-5.1.07-6.75-1.1,1.02-1.55,2.37-1.87,3.98-.31-.74-.49-1.31-.77-1.83-.39-.74-.34-1.34.1-2.12,1.28-2.28,1.07-4.6-.05-7-1.42,1.45-1.73,3.17-1.77,5.16-.5-.9-.85-1.63-1.29-2.3-.38-.6-.37-1.1-.11-1.76.95-2.43.47-4.71-.96-6.97-1.07,1.5-1.3,3.08-1.16,4.98-.56-.79-.91-1.39-1.37-1.91-.54-.62-.62-1.2-.42-2,.63-2.49-.1-4.66-1.76-6.67-.89,1.6-.94,3.2-.57,5.07-.51-.57-.84-.99-1.22-1.34-.65-.61-.87-1.22-.71-2.19.41-2.47-.54-4.54-2.33-6.39-.78,1.78-.68,3.46,0,5.39-.94-.83-1.62-1.47-2.36-2.06-.44-.35-.59-.69-.55-1.28.2-2.66-.97-4.71-3.03-6.44-.63,1.76-.29,3.38.39,5.05-1.61-.92-2.9-1.72-3.02-3.87-.1-2.05-1.59-3.56-3.43-4.7-.36,1.85.04,3.42.83,4.96-1.01-.66-2.12-1.02-2.92-2.05-1.3-1.68-3.2-2.38-5.3-2.5-.19-.01-.44-.12-.57.07-.18.25.09.42.2.61,1.11,1.94,2.76,3.17,4.99,3.29,1.58.08,2.67,1,3.91,1.74-1.76-.32-3.42-.1-5.01.66-.2.09-.52.07-.52.38,0,.28.3.35.48.46,2.2,1.28,4.43,1.41,6.7.16.29-.16.53-.43.91-.17.97.68,1.97,1.29,3.05,2.31-2.17-.53-4.01-.41-5.8.51,1.77,1.86,4.67,2.33,7.14,1.21.27-.12.5-.37.82-.1.91.78,1.87,1.53,2.78,2.59-1.96-.72-3.73-.85-5.57-.21,1.39,2.01,4.07,2.89,6.59,2.27.33-.08.7-.44,1.03-.08.84.91,1.65,1.84,2.47,2.76-1.69-.77-3.36-1.02-5.1-.81-.24.03-.6-.05-.68.27-.07.24.18.42.34.59,1.7,1.8,3.73,2.56,6.19,2.08.35-.07.71-.3,1,.13.78,1.12,1.57,2.23,2.47,3.53-2.92-1.49-3.89-1.73-5.64-1.41.05.13.07.25.14.35,1.37,2.12,3.29,3.19,5.83,3.1.33-.02.73-.25.99.22.55,1.02,1.19,1.99,1.62,3.16-2.8-1.82-3.96-2.24-5.38-1.97.97,2.37,2.65,3.98,5.2,4.19,1.24.1,1.65.65,1.96,1.62.29.91.81,1.76.92,2.91-1.58-1.5-3.27-2.29-5.28-2.39-.08.46.13.77.3,1.08,1.11,1.98,2.76,3.15,5.04,3.43.31.04.73-.1.85.35.4,1.38.84,2.77,1.03,4.37-1.87-2.3-3.15-3.19-4.71-3.36.21,2.63,1.94,4.77,4.51,5.6.39.13.76.17.83.71.23,1.84.48,3.65.52,5.74-1.01-2.11-2.42-3.48-4.44-4.28-.03,2.45,1.02,4.68,3.13,5.67,1.38.65,1.54,1.49,1.39,2.73-.07.56-.03,1.15-.09,1.71-.05.46.1.97-.27,1.44-.73-1.95-1.97-3.33-3.8-4.27-.04.25-.1.44-.1.63.04,2.46,1.01,4.4,3.12,5.74.26.16.69.21.63.67-.17,1.33-.34,2.66-.79,4.25-.43-2.02-1.42-3.39-2.67-4.58h0c-.83-.4-.84.33-.89.74-.24,1.65-.12,3.37,1,4.59,1.25,1.38,1.69,2.69.99,4.4-.01.02,0,.04-.01.05-.22-1.34-.77-2.48-1.58-3.47-.35-.44-.8-.69-1.22-.03-.42.77-.58,1.61-.55,2.48-.09,1.03.36,1.97.55,2.95.04.16.09.32.19.46.13.2.32.29.53.36.93.7.96,1.51.39,2.49-.46.78-.78,1.64-1.15,2.46-.12.26-.38.6-.02.8.38.19.51-.23.62-.48.47-.97.94-1.93,1.33-2.93.21-.52.47-.78,1.05-.89,2.37-.43,4.07-1.81,5.19-3.92.11-.22.41-.43.18-.71-.17-.2-.45-.08-.67-.06-1.66.19-3.04.93-4.27,2.07.24-1.05.58-2.06.83-3.08.15-.58.45-.85,1.02-1.06,2.56-.96,3.98-2.9,4.65-5.62-1.09.14-1.92.54-2.71,1.04-.77.49-1.32,1.22-2,2.03.22-1.28.44-2.37.58-3.47.07-.62.32-1,.86-1.35,2.04-1.3,3.08-3.22,3.31-5.6.02-.22.06-.55-.07-.67-.24-.23-.47.1-.69.2-1.22.55-2,1.59-2.83,2.83.03-1.34.08-2.44.07-3.54,0-.49.16-.79.53-1.1,1.88-1.5,2.74-3.5,2.71-5.89,0-.29.17-.69-.13-.84-.36-.17-.58.25-.84.42-1.07.72-1.71,1.79-2.36,3.13-.18-1.58-.33-2.88-.51-4.17-.06-.47.17-.74.46-1.04Z" style="fill:#fff; stroke-width:0px;"/><path d="M161.41,684.2c-.54-.39-.74-.76-.6-1.5.49-2.6-.81-5.41-2.82-6.34-.27.85-.25,1.72-.19,2.59.06.87.33,1.67.57,2.52-.59-.46-1.08-1.01-1.64-1.47-.83-.67-1.1-1.32-.69-2.46.78-2.21-.13-5.02-1.76-6.18-.74,1.72-.9,3.46-.33,5.5-.97-.94-1.58-1.85-2.29-2.68-.49-.58-.54-1.01-.12-1.72,1.27-2.14.98-5.24-.54-6.75-1.13,1.68-1.5,3.51-1.33,5.54-.82-1.2-1.53-2.44-2.29-3.65-.32-.52-.34-.87.08-1.41,1.65-2.08,1.79-5,.41-7.06-1.38,1.58-1.91,3.43-1.86,5.72-.91-1.71-1.47-3.29-2.12-4.83-.25-.6-.17-1,.3-1.49,1.69-1.77,2.17-3.88,1.52-6.23-.06-.24-.03-.6-.34-.67-.31-.07-.43.28-.59.47-1.1,1.31-1.7,2.84-1.92,4.56-.42-1.21-.7-2.44-1.05-3.65-.16-.6-.04-.93.51-1.31,2-1.36,2.83-3.35,2.76-5.72-.02-.6-.17-.93-.81-.4-.52.43-1,.89-1.45,1.39-.71.8-1.06,1.8-1.58,2.87-.34-1.28-.38-2.42-.56-3.54-.13-.75.05-1.18.74-1.61,2.18-1.33,3.36-4.19,2.7-6.47-1.77.98-2.85,2.52-3.63,4.33-.1-1.01-.08-1.97-.13-2.94-.04-.66.2-.99.82-1.28,2.19-1.01,3.34-2.81,3.6-5.2.02-.22.17-.5-.1-.64-.19-.1-.36.09-.54.19-1.53.8-2.69,1.98-3.55,3.51.05-1.16.23-2.29.28-3.42.04-.75.32-1.06,1.05-1.28,2.48-.73,4.35-3.17,4.31-5.53h-.02c-2,.54-3.51,1.72-4.71,3.4.14-1.01.38-1.96.55-2.94.11-.68.41-.99,1.13-1.15,2.23-.5,3.71-1.93,4.54-4.04.11-.3.39-.68.16-.93-.27-.3-.68,0-1.01.11-1.44.46-2.65,1.29-3.69,2.41.28-1.04.66-2.01.96-3,.18-.58.47-.73,1.08-.76,2.57-.12,5.02-2.09,5.55-4.44-2.09.02-3.78.9-5.32,2.23.24-.68.61-1.28.84-1.93.45-1.23,1.09-1.87,2.61-1.84,2.29.04,4.93-2.4,5-3.98-.98-.05-1.93.15-2.86.46-.91.3-1.7.86-2.5,1.38.78-1.33,1.42-2.68,2.84-3.56,1.98-1.23,3.03-4,2.46-5.84-2.02,1.14-3.57,2.68-3.97,5.03-.21,1.26-.91,2.19-1.6,3.24-.2-2.62-.61-3.75-1.69-4.71-1.19,2.29-1.38,4.59-.27,6.96.13.28.42.53.21.92-.46.85-.87,1.71-1.44,2.83-.1-1.78-.57-3.14-1.51-4.33-.35-.46-.57-.49-.77.14-.73,2.27-.63,4.42.63,6.49.17.27.5.47.33.89-.4,1.04-.77,2.1-1.26,3.41-.35-2.03-1-3.59-2.59-4.69-.72,2.6-.39,4.93,1.23,7.02.21.27.58.47.45.94-.23.83-.42,1.67-.65,2.6-1.14-2.53-1.66-3.24-3.01-3.96-.45,2.63.03,4.95,1.88,6.91.27.3.55.53.46,1.02-.16.89-.24,1.8-.38,2.92-.72-1.44-1.48-2.6-2.71-3.4-.63-.42-.73-.16-.73.4,0,1.98.4,3.93,1.95,5.21,1.26,1.05,1.42,2.2,1.29,3.6-.03.34-.02.7-.03,1.27-.82-1.57-1.8-2.74-3.25-3.43-.21-.09-.49-.24-.65-.18-.26.11-.1.41-.07.63.35,2.46,1.41,4.46,3.64,5.73.23.13.54.2.58.52.12.93.21,1.87.34,3.06-1.06-1.4-2.16-2.28-3.72-2.72.27,2.71,1.4,4.75,3.67,6.13.3.18.71.23.83.67l.88,3.47c-1.07-.96-2.18-1.74-3.53-2.09-.28-.07-.63-.3-.85-.02-.16.21.04.51.13.76.89,2.24,2.39,3.84,4.74,4.58.28.09.57.13.71.47.49,1.28,1,2.57,1.55,3.96-2.38-1.39-3.1-1.62-4.53-1.46,1.06,2.5,2.83,4.12,5.5,4.69.29.06.64-.01.82.3.62,1.06,1.22,2.14,1.83,3.2-1.2-.52-2.38-.88-3.64-.89-.24,0-.59-.1-.72.2-.1.23.13.42.26.62,1.36,2.01,3.25,3.15,5.68,3.36.29.02.63-.1.85.19.82,1.06,1.64,2.13,2.62,3.39-1.93-1-3.68-1.2-5.64-.52,1.94,2.07,4.11,3.11,6.84,2.73.29-.04.59-.27.86,0,.92.89,1.82,1.79,2.73,2.69-1.65-.39-3.19-.32-4.72.25-.24.09-.58.12-.65.4-.08.33.3.4.5.54,1.95,1.29,4.08,1.72,6.33,1.01.63-.2,1.04-.11,1.52.3.82.69,1.7,1.31,2.56,1.96.21.16.48.37.69.07.22-.3-.08-.48-.29-.64-.88-.67-1.76-1.35-2.66-1.99Z" style="fill:#fff; stroke-width:0px;"/><path d="M244.96,629.71c-3.14-13.53-10.65-23.95-22.9-30.5-15.27-8.16-30.74-7.85-45.63.92-19.45,11.47-27.35,34.99-19.17,56.03,4.76,12.23,13.31,21.05,25.51,25.8,17.17,6.69,33.09,3.87,47.35-7.8,5.14-4.21,8.88-9.57,11.73-15.55v-.02c.25-.12.42-.32.54-.56.15-.31.21-.67.4-.95.17-.4.31-.81.51-1.2.1-.38.26-.74.39-1.11.12-.34.26-.67.37-1.01.14-.68.36-1.34.6-2,.77-2.7,1.25-5.47,1.51-8.27.03-.31-.01-.6-.19-.86,0-.44-.01-.87,0-1.3.17-3.91-.14-7.79-1.02-11.6ZM212.38,682.6c-24.02,6.85-49.11-7.2-55.71-31.45-6.48-23.78,7.68-48.5,31.51-55.01,23.85-6.52,48.64,7.55,55.15,31.29h0c6.66,24.34-7.79,48.57-30.95,55.16Z" style="fill:#fff; stroke-width:0px;"/><path d="M160.47,582.63c-.27.6-.76,1.11-1.4,1.4-.63.29-.71.57-.26,1.16,3.81,5.06,7.61,10.14,11.39,15.24.41.54.66.53,1.18.17,10.65-7.47,22.46-10.45,35.38-8.95.67.08.78-.14.86-.7.85-5.98,1.73-11.96,2.59-17.94.08-.53.35-1.16.16-1.57-.21-.45-.96-.13-1.44-.3-.2-.07-.39-.13-.59-.16-.5-.08-.93-.8-1.3-.53-.35.26-.39.96-.56,1.46-1.2,3.47-2.76,6.72-5.64,9.15-3.25,2.75-6.97,2.65-10.07-.25-.56-.52-1.06-1.13-1.53-1.73-1.42-1.81-2.31-3.91-3.21-6.14-1.54,1.56-3.3,2.13-5.44,1.38.07.61.11,1.1.17,1.59.24,2.36.23,4.69-.38,7-1.21,4.55-4.83,6.67-9.39,5.52-1.41-.36-2.73-.89-4-1.62-2.02-1.17-3.83-2.6-5.49-4.24-.41-.41-.65-.73-1.02.07Z" style="fill:#fff; stroke-width:0px;"/><path d="M197.35,582.2h0c1.76-.46,3.1-1.54,4.34-2.81.48-.49.45-.84.02-1.34-1.43-1.67-2.6-3.5-3.42-5.54-.27-.67-.42-1.17.32-1.79,1.41-1.18,1.32-3.32-.03-4.53-1.32-1.18-3.37-1.01-4.48.38-1.14,1.43-.88,3.51.68,4.5.57.36.67.71.61,1.29-.3,2.92-1.52,5.41-3.54,7.5-.51.54-.38.77.12,1.13,1.64,1.18,3.4,1.73,5.4,1.21Z" style="fill:#fff; stroke-width:0px;"/><polygon points="175.02 587.88 175.01 587.88 175.01 587.88 175.02 587.88" style="fill:#fff; stroke-width:0px;"/><path d="M168.45,578.38c1.01.19,1.11.72,1.19,1.46.24,2.19.08,4.35-.36,6.51-.09.43-.22.83.4,1.04,1.74.6,3.49.92,5.33.5,2.02-.48,3.32-1.79,4.19-3.6.29-.6.3-.87-.44-1.11-2.7-.86-4.9-2.44-6.56-4.77-.37-.51-.55-.92-.16-1.6.9-1.57.06-3.58-1.61-4.25-1.59-.63-3.46.2-4.05,1.8-.64,1.71.27,3.7,2.05,4.03Z" style="fill:#fff; stroke-width:0px;"/><path d="M183.13,573.89c1.86-.45,3.05-2.37,2.62-4.24-.44-1.97-2.38-3.16-4.36-2.7-1.81.43-3.03,2.42-2.62,4.25.45,1.98,2.39,3.17,4.36,2.69Z" style="fill:#fff; stroke-width:0px;"/><path d="M210.62,570.37c1.97-.47,3.12-2.35,2.64-4.3h.01c-.48-1.93-2.41-3.11-4.33-2.62s-3.07,2.42-2.58,4.35,2.33,3.03,4.25,2.57Z" style="fill:#fff; stroke-width:0px;"/><path d="M157.62,583.84c1.97-.46,3.15-2.37,2.68-4.29-.48-1.95-2.38-3.11-4.31-2.65-1.89.45-3.08,2.37-2.63,4.24.48,2,2.31,3.16,4.27,2.7Z" style="fill:#fff; stroke-width:0px;"/><path d="M164.01,604.86c.16.66.67.92,1.29.77.65-.14.87-.66.78-1.35-.23-.55-.65-.89-1.3-.72-.64.17-.93.64-.76,1.29Z" style="fill:#fff; stroke-width:0px;"/><path d="M167.06,677.02c.67-.16.86-.67.79-1.33h0c-.23-.58-.68-.89-1.32-.73s-.94.64-.77,1.3.66.92,1.31.77Z" style="fill:#fff; stroke-width:0px;"/><path d="M151.74,654.06c.2.62.67.92,1.33.71.61-.19.86-.67.71-1.25-.15-.64-.64-.89-1.3-.79h0c-.6.25-.95.67-.74,1.33Z" style="fill:#fff; stroke-width:0px;"/><path d="M151.06,627.69c.14.67.62.97,1.26.84.64-.13.94-.6.8-1.33-.19-.6-.65-.89-1.3-.73-.59.15-.9.6-.77,1.23Z" style="fill:#fff; stroke-width:0px;"/><path d="M159.66,612.45c.64-.17.92-.69.73-1.33-.17-.59-.63-.88-1.24-.73-.64.16-.92.62-.8,1.25.2.71.67.97,1.31.81Z" style="fill:#fff; stroke-width:0px;"/><path d="M151.98,644.86c-.14-.61-.57-.9-1.19-.79-.66.12-.99.57-.86,1.23.13.65.58.93,1.25.84.68-.19.95-.65.8-1.28Z" style="fill:#fff; stroke-width:0px;"/><path d="M153.97,619.32c.12.67.61.97,1.26.85.66-.13.91-.62.85-1.31-.23-.57-.63-.92-1.31-.75-.63.15-.9.6-.79,1.2Z" style="fill:#fff; stroke-width:0px;"/><path d="M156.26,663.01c.64-.12.98-.58.83-1.25-.15-.66-.6-.92-1.27-.82-.63.21-.93.64-.77,1.31.15.63.61.89,1.21.76Z" style="fill:#fff; stroke-width:0px;"/><path d="M160.54,668.46c-.67.17-.93.66-.77,1.3s.67.87,1.37.73c.57-.24.87-.7.67-1.34-.19-.58-.65-.85-1.27-.69Z" style="fill:#fff; stroke-width:0px;"/><polygon points="173.57 680.3 173.58 680.3 173.58 680.3 173.57 680.3" style="fill:#fff; stroke-width:0px;"/><path d="M172.86,681.64c.19.68.72.89,1.34.7.65-.2.86-.74.65-1.37-.2-.58-.64-.84-1.28-.68-.63.23-.89.69-.72,1.34Z" style="fill:#fff; stroke-width:0px;"/><path d="M151.76,636.04c-.14-.67-.58-.93-1.24-.82-.68.19-.96.63-.79,1.28.15.6.57.91,1.2.78.66-.14.98-.56.84-1.23Z" style="fill:#fff; stroke-width:0px;"/><path d="M237.43,605.63c-.25-.54-.68-.84-1.32-.65-.64.2-.89.71-.71,1.33.18.63.69.92,1.32.71.62-.2.87-.69.71-1.4Z" style="fill:#fff; stroke-width:0px;"/><path d="M249.44,629.1c-.23-.59-.66-.91-1.32-.74-.6.16-.89.63-.76,1.23.15.64.63.99,1.28.83.64-.15.91-.63.79-1.33Z" style="fill:#fff; stroke-width:0px;"/><path d="M230.86,599.8c-.14-.61-.6-.9-1.22-.77-.66.13-.98.61-.84,1.26.13.67.62.91,1.32.82.61-.21.89-.68.74-1.32Z" style="fill:#fff; stroke-width:0px;"/><path d="M245.52,619.91c-.64.2-.88.74-.68,1.36.18.6.68.85,1.28.69.64-.18.88-.66.76-1.35h0c-.26-.6-.72-.9-1.36-.7Z" style="fill:#fff; stroke-width:0px;"/><path d="M213.75,591.08h0c-.52.24-.89.66-.68,1.32.21.63.69.89,1.35.7.62-.19.86-.67.71-1.26-.16-.63-.64-.9-1.37-.76Z" style="fill:#fff; stroke-width:0px;"/><path d="M244.12,663.56h0c-.11-.7-.55-.99-1.14-.93-.65.07-1.04.49-.96,1.18.08.66.51,1.03,1.19.93.67-.1.95-.55.91-1.17Z" style="fill:#fff; stroke-width:0px;"/><path d="M222.59,596.43c.64-.18.94-.63.77-1.29-.19-.72-.74-.94-1.39-.76-.61.17-.8.65-.68,1.29h.01c.23.56.61.93,1.29.75Z" style="fill:#fff; stroke-width:0px;"/><path d="M248.41,638.41c.15.67.61.92,1.33.79h0c.57-.22.9-.64.71-1.3-.19-.66-.67-.91-1.32-.72-.62.18-.87.63-.73,1.24Z" style="fill:#fff; stroke-width:0px;"/><path d="M241.55,612.01c-.6.13-.89.58-.79,1.2.11.68.59.98,1.23.87.64-.12.93-.59.83-1.29-.18-.63-.64-.92-1.28-.78Z" style="fill:#fff; stroke-width:0px;"/><path d="M247.26,656.63c.44-.44.68-.94.46-1.57-.27-.3-.61-.51-1-.6-.19.06-.39.12-.58.17-.39.1-.55.34-.49.74-.06.37.07.69.25,1,.34.7.79.77,1.35.26Z" style="fill:#fff; stroke-width:0px;"/><path d="M249.89,646.72c-.16-.63-.67-.86-1.25-.73-.65.14-.91.63-.81,1.35.21.58.64.89,1.3.71.65-.17.92-.67.75-1.32Z" style="fill:#fff; stroke-width:0px;"/><polygon points="247.83 647.34 247.83 647.34 247.83 647.33 247.83 647.34" style="fill:#fff; stroke-width:0px;"/><path d="M188.9,598.07c-22.47,5.91-36.31,29.51-30.43,51.88,6.14,23.34,29.38,37.01,52.57,30.91,22.82-6.01,36.47-29.45,30.47-52.34-6.01-22.95-29.49-36.53-52.61-30.45ZM209.94,679.02c-21.8,5.49-43.96-7.77-49.46-29.6-5.49-21.78,7.74-44.01,29.45-49.48,22-5.54,44.12,7.63,49.66,29.56,5.52,21.86-7.73,44-29.65,49.52Z" style="fill:#fff; stroke-width:0px;"/><path d="M190.59,602.59c-20.54,5.29-32.69,25.99-27.37,46.61,5.2,20.16,26.03,32.33,46.37,27.08,20.49-5.3,32.57-25.99,27.25-46.68-5.16-20.02-26.02-32.21-46.24-27.01ZM209.13,675.14c-19.72,5.01-39.76-6.91-44.78-26.63s6.91-39.76,26.63-44.78,39.76,6.91,44.78,26.63c5.01,19.72-6.91,39.76-26.63,44.78Z" style="fill:#fff; stroke-width:0px;"/><path d="M182.17,651.03c.9-.23,1.82-.6,2.74-1.12.92-.52,1.71-1.21,2.36-2.06.65-.86,1.11-1.87,1.37-3.06s.2-2.55-.19-4.07c-.3-1.18-.72-2.21-1.24-3.08s-1.17-1.55-1.95-2.04-1.69-.8-2.74-.91c-1.05-.11-2.24,0-3.59.35-.58.15-1.15.31-1.72.5-.56.18-1.14.35-1.72.5s-1.16.27-1.74.4c-.58.12-1.17.24-1.75.36.3.99.6,1.98.89,2.94s.55,1.94.81,2.96v.04s1.01,3.95,1.01,3.95c.26,1.02.49,2.02.7,3,.2,1,.41,1.97.61,2.93.51-.16,1.02-.31,1.52-.44l1.54-.39c.52-.13,1.03-.26,1.54-.37.51-.11,1.02-.24,1.54-.37ZM177.97,650.99c-.5-1.57-.96-3.18-1.38-4.83h-.01s-1-3.96-1-3.96c-.21-.83-.4-1.65-.59-2.46-.18-.81-.34-1.59-.48-2.34.46-.18.99-.37,1.57-.57.58-.2,1.22-.38,1.91-.56.95-.24,1.84-.37,2.69-.38.85,0,1.62.16,2.32.51.7.35,1.33.91,1.88,1.68s.99,1.83,1.33,3.16c.38,1.51.48,2.8.31,3.87-.18,1.07-.52,1.96-1.05,2.68-.53.72-1.19,1.29-1.98,1.7s-1.61.73-2.45.94c-.58.15-1.15.27-1.71.37-.57.1-1.01.16-1.36.17Z" style="fill:#fff; stroke-width:0px;"/><path d="M212.41,629.18c.41-.72.95-1.32,1.63-1.79.67-.47,1.45-.81,2.32-1.04.53-.13,1.03-.18,1.52-.16s.93.1,1.33.22c.41.11.77.25,1.09.41.32.15.58.3.78.44l.12-.08c-.01-.24-.03-.56-.05-.93-.02-.38,0-.69.07-.92-.69-.12-1.46-.18-2.32-.17-.85,0-1.77.13-2.75.38-1.23.31-2.3.77-3.24,1.39-.93.61-1.67,1.36-2.23,2.22-.55.86-.91,1.84-1.07,2.93-.16,1.09-.08,2.26.24,3.52s.81,2.32,1.47,3.21c.66.88,1.43,1.57,2.32,2.07s1.87.78,2.95.87c1.08.08,2.2-.02,3.37-.32.55-.14,1.06-.31,1.54-.53.48-.21.91-.43,1.29-.65.38-.21.7-.42.95-.64h-.01c.25-.22.43-.4.53-.56l-.14-1.36-.12-.07c-.16.22-.37.47-.62.76-.25.29-.54.57-.87.86-.33.28-.7.55-1.12.79-.41.24-.89.43-1.42.57-.88.22-1.72.29-2.54.2-.83-.09-1.58-.35-2.28-.8-.7-.44-1.32-1.07-1.86-1.89-.53-.82-.96-1.84-1.27-3.07s-.42-2.33-.34-3.3c.08-.97.32-1.82.73-2.55Z" style="fill:#fff; stroke-width:0px;"/><path d="M197.87,633.31s-.18.42-.58.6c.73.16.83-.76.83-.76,0,0,4.44-10.93,5.01-11.61.4-.48,1.24-.36,1.24-.36,1.16.03,2.72-5.71,2.72-5.71l-.5-.24s-2.07,4.36-2.21,4.52-.35-.17-.35-.17l2.11-4.3-.5-.24s-1.85,4.05-2.02,4.19c-.3.26-.41-.22-.41-.22l2.29-4.31-.44-.22s-3.96,4.7-3.08,5.53c.87.83.51,1.22.51,1.22-.35,1.39-4.34,8.12-5.67,10.35.28.15.5.26.64.3,0,0,.99.63.42,1.44Z" style="fill:#fff; stroke-width:0px;"/><path d="M189.32,628.39c3.85,2.26,6.12,4.87,6.87,5.34.48.3.84.29,1.11.18-.14-.03-.31-.1-.51-.23-.79-.51-.63-.55-.39-1.38h-.01s.16-.28.43-.73c-3.28-1.78-15.34-10.36-15.34-10.36h.02c-1.91-.25.17,2.51,1.54,3.73,2.64,2.37,4.78,2.56,6.28,3.45Z" style="fill:#fff; stroke-width:0px;"/><rect x="196.97" y="652.52" width="4.44" height="4.44" rx="1.25" ry="1.25" transform="translate(-155.13 69.23) rotate(-14.26)" style="fill:#fff; stroke-width:0px;"/><rect x="198.37" y="658.02" width="4.44" height="4.44" transform="translate(-156.44 69.75) rotate(-14.26)" style="fill:#fff; stroke-width:0px;"/><rect x="203.88" y="656.62" width="4.44" height="4.44" transform="translate(-155.93 71.06) rotate(-14.26)" style="fill:#fff; stroke-width:0px;"/><rect x="202.48" y="651.12" width="4.44" height="4.44" transform="translate(-154.61 70.55) rotate(-14.26)" style="fill:#fff; stroke-width:0px;"/><path d="M294.73,580.67c-.72-2.82-1.48-5.58-2.27-8.28-.8-2.69-1.62-5.44-2.47-8.23,1.65-.33,3.28-.67,4.91-1.01,1.62-.34,3.25-.73,4.88-1.14s3.23-.88,4.81-1.39c1.58-.51,3.18-.98,4.81-1.39,3.76-.96,7.11-1.28,10.04-.98,2.92.31,5.48,1.15,7.65,2.54,2.17,1.38,3.99,3.29,5.45,5.72,1.46,2.43,2.61,5.29,3.45,8.59,1.09,4.28,1.27,8.07.53,11.38-.74,3.31-2.02,6.15-3.85,8.53-1.83,2.38-4.03,4.3-6.61,5.74-2.57,1.46-5.11,2.5-7.65,3.14-1.45.37-2.89.72-4.32,1.03-1.43.31-2.87.66-4.32,1.03l-4.3,1.09c-1.42.36-2.84.76-4.27,1.22-.54-2.69-1.12-5.41-1.7-8.18-.59-2.76-1.25-5.56-1.96-8.38l-2.81-11.04h-.01ZM302.8,590.38c1.17,4.62,2.46,9.13,3.84,13.52.96-.02,2.22-.17,3.78-.45,1.56-.28,3.16-.63,4.79-1.05,2.36-.6,4.64-1.48,6.85-2.63,2.21-1.16,4.05-2.74,5.52-4.75,1.47-2.02,2.45-4.51,2.96-7.48.49-2.97.21-6.58-.87-10.82-.95-3.72-2.18-6.67-3.71-8.83-1.53-2.16-3.27-3.74-5.23-4.72-1.95-.98-4.12-1.46-6.48-1.43-2.36.03-4.87.38-7.52,1.06-1.93.49-3.71,1.01-5.34,1.57s-3.1,1.08-4.38,1.59c.39,2.09.85,4.27,1.35,6.53.51,2.26,1.06,4.55,1.64,6.86l2.81,11.04h0Z" style="fill:#fafafa; stroke-width:0px;"/><path d="M342.39,559.61c-.81-2.71-1.62-5.42-2.44-8.13,1.95-.41,3.89-.82,5.8-1.24s3.84-.88,5.77-1.37,3.82-1,5.69-1.55c1.86-.54,3.75-1.1,5.66-1.68.03.68.13,1.33.29,1.98s.39,1.27.69,1.88c-1.39.26-2.67.5-3.82.69-1.16.2-2.38.43-3.66.65-1.29.24-2.68.51-4.2.83s-3.32.74-5.42,1.28c.3,1.38.59,2.7.84,3.96.25,1.26.58,2.68.98,4.26.42,1.67.85,3.29,1.27,4.87s.74,2.78.94,3.59c1.88-.48,3.57-.93,5.06-1.35,1.49-.42,2.84-.82,4.07-1.2s2.35-.74,3.39-1.07,2-.66,2.93-.98c.03.68.14,1.35.31,2.04.16.64.39,1.27.69,1.88-1.15.15-2.47.38-3.96.67-1.5.29-2.99.61-4.47.97-1.49.36-2.88.69-4.19,1-1.31.31-2.35.57-3.12.76.1.38.19.8.29,1.25s.23,1.02.41,1.71l1.62,6.36c.62,2.44,1.14,4.45,1.56,6.03.42,1.58.76,2.77,1.01,3.57l4.5-1.14c1.63-.41,3.21-.85,4.76-1.31s3-.92,4.37-1.39c1.36-.46,2.53-.93,3.51-1.41,0,.32.02.67.09,1.04s.15.71.23,1c.18.69.38,1.22.62,1.62-1.95.41-3.88.85-5.78,1.33l-11.65,2.96c-1.93.49-3.86,1.02-5.81,1.61-.57-2.77-1.15-5.53-1.73-8.28-.59-2.75-1.24-5.53-1.95-8.36l-2.81-11.04c-.72-2.82-1.48-5.59-2.28-8.3h-.05Z" style="fill:#fafafa; stroke-width:0px;"/><path d="M432.61,573.28c-.73.62-1.65,1.24-2.74,1.86-1.09.62-2.34,1.25-3.73,1.87-1.39.62-2.88,1.14-4.47,1.54-3.38.86-6.63,1.17-9.74.94-3.11-.23-5.95-1.07-8.53-2.51-2.58-1.44-4.82-3.43-6.72-5.99-1.9-2.55-3.32-5.64-4.24-9.28s-1.16-7.03-.7-10.18c.45-3.15,1.49-5.97,3.11-8.48,1.62-2.5,3.78-4.65,6.46-6.43,2.69-1.77,5.81-3.11,9.37-4.02,2.82-.72,5.47-1.08,7.96-1.1,2.47-.01,4.72.16,6.72.51-.19.68-.26,1.57-.22,2.65.05,1.08.1,1.98.14,2.7l-.35.23c-.56-.4-1.3-.83-2.24-1.28s-1.99-.84-3.17-1.18c-1.18-.34-2.46-.55-3.85-.63s-2.85.08-4.39.47c-2.52.64-4.77,1.65-6.72,3.01-1.95,1.36-3.52,3.09-4.7,5.19-1.17,2.1-1.89,4.55-2.12,7.38-.25,2.82.09,6,.99,9.55s2.13,6.51,3.69,8.87c1.56,2.36,3.35,4.18,5.39,5.47,2.03,1.29,4.24,2.06,6.61,2.32,2.37.26,4.82.07,7.34-.57,1.54-.39,2.91-.95,4.13-1.66,1.21-.71,2.29-1.48,3.24-2.29.95-.81,1.79-1.64,2.51-2.48.72-.85,1.32-1.57,1.8-2.2l.33.19.39,3.94c-.29.44-.81.97-1.54,1.59h0Z" style="fill:#fafafa; stroke-width:0px;"/><path d="M477,563.61c-.62.07-1.2.17-1.74.3l-3.4.86c-.54.14-1.09.32-1.67.56-.55-.91-1.26-1.99-2.13-3.26-.86-1.26-1.8-2.57-2.81-3.93-1.01-1.36-2.03-2.75-3.06-4.14-1.04-1.4-2.01-2.74-2.93-4-1.38.3-2.78.63-4.2.97-1.42.34-2.83.69-4.24,1.05-1.33.34-2.63.68-3.91,1.02s-2.57.71-3.9,1.09c-.52,3.68-.95,7.18-1.3,10.48-.35,3.3-.55,6.01-.6,8.11-.75.1-1.55.26-2.41.47s-1.64.46-2.34.73c1.56-8.37,3.05-16.68,4.46-24.92,1.42-8.24,2.82-16.62,4.21-25.13l1.22-.31c1.66,2.23,3.46,4.62,5.39,7.21,1.93,2.58,3.9,5.2,5.89,7.83,1.99,2.64,3.98,5.25,5.96,7.85s3.84,5,5.56,7.23c1.73,2.23,3.28,4.21,4.66,5.95,1.38,1.75,2.47,3.06,3.29,3.95h0ZM443.48,550.87c1.12-.28,2.28-.56,3.48-.82,1.21-.26,2.37-.53,3.48-.82,1.2-.31,2.39-.62,3.59-.94,1.2-.32,2.38-.66,3.57-1.01l-11.27-14.5-2.86,18.09h0Z" style="fill:#fafafa; stroke-width:0px;"/><path d="M477.4,534.25c-.72-2.82-1.48-5.58-2.27-8.28-.8-2.69-1.62-5.44-2.47-8.23,1.05-.18,2.11-.37,3.17-.57,1.07-.2,2.11-.44,3.13-.7.51-.13,1.13-.31,1.85-.54.72-.22,1.44-.45,2.19-.66.74-.21,1.45-.43,2.13-.64.67-.21,1.25-.39,1.72-.51.64-.16,1.44-.35,2.39-.54.95-.19,1.98-.32,3.09-.38s2.22.01,3.35.17c1.13.17,2.22.56,3.27,1.15s1.97,1.45,2.8,2.54c.82,1.09,1.47,2.53,1.92,4.33.72,2.82.68,5.27-.09,7.34-.77,2.07-1.92,3.82-3.45,5.25-1.53,1.44-3.24,2.58-5.15,3.43s-3.62,1.47-5.17,1.86c-.99.25-1.88.47-2.71.66-.81.19-1.67.34-2.55.48l.9,3.53c.72,2.82,1.48,5.59,2.28,8.3.8,2.71,1.61,5.38,2.41,8-1.01.17-2.06.39-3.18.67s-2.15.59-3.11.93c-.54-2.69-1.12-5.41-1.7-8.18-.59-2.76-1.25-5.56-1.96-8.38l-2.81-11.04h.03ZM483.88,537.73c1.54-.02,3.1-.24,4.68-.65,1.32-.34,2.66-.84,3.99-1.49,1.34-.66,2.49-1.54,3.47-2.63.97-1.09,1.66-2.43,2.05-4.01.39-1.58.32-3.46-.24-5.65-.47-1.84-1.11-3.28-1.92-4.3s-1.75-1.75-2.84-2.15-2.32-.56-3.7-.46c-1.39.11-2.91.36-4.59.79l-5.78,1.47,4.85,19.07h.02Z" style="fill:#fafafa; stroke-width:0px;"/><path d="M510.82,516.9c-.8-2.69-1.62-5.44-2.47-8.23.58-.06,1.13-.12,1.66-.18s1.05-.17,1.56-.3,1.02-.29,1.52-.49c.5-.2,1.02-.41,1.54-.63.59,2.85,1.18,5.66,1.76,8.41.58,2.75,1.24,5.53,1.95,8.36l2.81,11.04c.72,2.82,1.48,5.59,2.28,8.3.8,2.71,1.61,5.38,2.41,8-1.01.17-2.06.39-3.18.67s-2.15.59-3.11.93c-.54-2.69-1.12-5.41-1.7-8.18-.59-2.76-1.25-5.56-1.96-8.38l-2.81-11.04c-.72-2.82-1.48-5.58-2.27-8.28h0Z" style="fill:#fafafa; stroke-width:0px;"/><path d="M536.3,505.14c-1.12.28-2.28.59-3.49.92s-2.42.69-3.63,1.06-2.36.75-3.47,1.12-2.1.74-2.97,1.09c.02-.83-.04-1.54-.2-2.14-.12-.47-.4-1.11-.83-1.91,2.84-.63,5.63-1.26,8.34-1.88,2.72-.62,5.48-1.29,8.3-2.01s5.58-1.45,8.25-2.2c2.68-.75,5.42-1.53,8.22-2.33,0,.91.08,1.63.21,2.14.14.56.41,1.19.82,1.91-.94.1-1.98.25-3.13.46s-2.35.43-3.59.67-2.47.52-3.69.8c-1.22.29-2.39.58-3.51.86.99,4.44,2.05,8.89,3.18,13.34l2.81,11.04c.72,2.82,1.48,5.59,2.28,8.3.8,2.71,1.61,5.38,2.41,8-1.01.17-2.06.39-3.18.67s-2.15.59-3.11.93c-.54-2.69-1.12-5.41-1.7-8.18-.59-2.76-1.25-5.56-1.96-8.38l-2.81-11.04c-1.13-4.45-2.32-8.87-3.57-13.24h.04Z" style="fill:#fafafa; stroke-width:0px;"/><path d="M604.32,531.25c-.62.07-1.2.17-1.74.3l-3.4.86c-.54.14-1.09.32-1.67.56-.55-.91-1.26-1.99-2.13-3.26s-1.8-2.57-2.81-3.93c-1.01-1.36-2.03-2.75-3.06-4.14-1.04-1.4-2.01-2.74-2.93-4-1.38.3-2.78.63-4.2.97-1.42.34-2.83.69-4.24,1.05-1.33.34-2.63.68-3.91,1.02s-2.57.71-3.9,1.09c-.52,3.68-.95,7.18-1.3,10.48-.35,3.3-.55,6.01-.6,8.11-.75.1-1.55.26-2.41.47s-1.64.46-2.34.73c1.56-8.37,3.05-16.68,4.46-24.92,1.42-8.24,2.82-16.62,4.21-25.13l1.22-.31c1.66,2.23,3.46,4.62,5.39,7.21,1.93,2.58,3.9,5.2,5.89,7.83,1.99,2.64,3.98,5.25,5.96,7.85,1.98,2.6,3.83,5,5.56,7.23,1.73,2.23,3.28,4.21,4.66,5.95,1.38,1.75,2.47,3.06,3.29,3.95h0ZM570.81,518.51c1.11-.28,2.28-.56,3.48-.82,1.21-.26,2.37-.53,3.48-.82,1.2-.31,2.39-.62,3.59-.94,1.2-.32,2.38-.66,3.57-1.01l-11.27-14.5-2.86,18.09h0Z" style="fill:#fafafa; stroke-width:0px;"/><path d="M602.45,493.62c-.8-2.69-1.62-5.44-2.47-8.23.58-.06,1.13-.12,1.66-.18.53-.06,1.05-.17,1.56-.3s1.02-.29,1.52-.49c.5-.2,1.02-.41,1.54-.63.59,2.85,1.17,5.66,1.76,8.41.58,2.75,1.24,5.53,1.96,8.36,1.37,5.39,2.58,10.06,3.63,14.02,1.04,3.95,1.99,7.48,2.83,10.59,3.04-.77,5.94-1.54,8.71-2.31,2.77-.77,5.7-1.78,8.8-3.02-.02.83.04,1.5.17,2.01.12.47.37,1.03.76,1.65-1.99.42-3.97.87-5.94,1.37l-11.84,3.01c-1.91.49-3.87,1.02-5.91,1.64-.54-2.69-1.12-5.41-1.7-8.18-.59-2.76-1.25-5.56-1.96-8.38l-2.81-11.04c-.72-2.82-1.48-5.58-2.27-8.28h0Z" style="fill:#fafafa; stroke-width:0px;"/><path d="M327.33,641.49l-2.42.62c-.14-.59-.4-1.67-.79-3.26s-.88-3.55-1.48-5.91l-2.61.66-3.59.91-3.48.89-2.21.56c.69,2.72,1.21,4.78,1.59,6.17.37,1.39.64,2.39.79,2.97l-2.42.62c-.14-.59-.39-1.64-.75-3.14s-.99-4.03-1.9-7.59c-.27-1.08-.61-2.38-1.02-3.92s-.84-3.21-1.33-4.99l2.42-.62c.38,1.49.74,2.94,1.08,4.38.35,1.44.68,2.8,1.01,4.1l1.92-.49,3.79-.96,3.82-.97,2.37-.6c-.33-1.29-.68-2.65-1.06-4.07-.38-1.42-.76-2.88-1.14-4.38l2.42-.62c.36,1.49.77,3.19,1.25,5.14s.87,3.52,1.19,4.74c.73,2.88,1.3,5.07,1.71,6.6.41,1.52.7,2.58.85,3.16h-.01Z" style="fill:#e2e2e2; stroke-width:0px;"/><path d="M347.59,628.44c.29,1.14.36,2.27.22,3.41-.15,1.14-.5,2.17-1.08,3.1-.49.78-1.08,1.44-1.79,1.95-.71.53-1.55.91-2.55,1.16-.94.24-1.86.3-2.77.2s-1.75-.39-2.55-.84c-.93-.53-1.73-1.26-2.39-2.21-.67-.94-1.15-2-1.45-3.16s-.37-2.21-.27-3.23c.11-1.03.43-2.01.97-2.95.48-.85,1.11-1.57,1.89-2.16.77-.58,1.65-1,2.62-1.25s1.98-.32,2.89-.2,1.78.45,2.59.96c.94.58,1.71,1.31,2.32,2.19.61.87,1.05,1.88,1.35,3.04h-.01ZM345.27,629.14c-.23-.92-.61-1.78-1.13-2.57-.52-.79-1.17-1.41-1.95-1.85-.48-.28-1.01-.45-1.58-.51-.57-.07-1.15-.03-1.71.12-.67.17-1.23.43-1.68.77s-.83.8-1.15,1.37c-.39.66-.63,1.44-.72,2.33s-.02,1.79.2,2.67c.25,1,.64,1.88,1.15,2.63.52.76,1.19,1.35,2.02,1.79.47.25.97.4,1.52.45s1.09,0,1.65-.13c.61-.16,1.16-.41,1.64-.76.48-.35.86-.78,1.16-1.3.41-.71.67-1.5.75-2.38s.02-1.75-.2-2.63h.01Z" style="fill:#e2e2e2; stroke-width:0px;"/><path d="M364.13,630.19l.21,1.93c-.06.03-.23.08-.5.16s-.5.15-.69.2c-2,.51-3.63.48-4.86-.1s-2.08-1.73-2.51-3.46c-.28-1.09-.57-2.25-.87-3.5s-.69-2.79-1.16-4.62l-2.47.63-.44-1.71,2.6-.66-.88-3.47,2.12-.54.88,3.47,5.25-1.33.44,1.71-5.25,1.33c.05.2.21.82.45,1.84s.43,1.77.56,2.27l.93,3.64c.32,1.27.9,2.1,1.72,2.49.82.39,1.96.4,3.38.04l.63-.16.47-.12v-.03Z" style="fill:#e2e2e2; stroke-width:0px;"/><path d="M380.73,619.43l-10.61,2.7c.27,1.03.74,1.92,1.39,2.68s1.49,1.31,2.53,1.65c.66.22,1.37.33,2.14.32s1.66-.13,2.68-.39c.56-.14,1.07-.29,1.52-.44.46-.15.74-.24.84-.27l.23,2.01c-.07.03-.33.11-.76.25s-.95.28-1.55.43c-1.56.4-2.98.54-4.24.43s-2.36-.43-3.28-.95c-.78-.44-1.52-1.06-2.2-1.88-.68-.82-1.17-1.79-1.46-2.92s-.37-2.17-.26-3.14c.11-.99.39-1.94.86-2.89.41-.81.99-1.51,1.76-2.08.76-.58,1.6-.98,2.53-1.22s1.75-.3,2.53-.21,1.49.36,2.15.78c.74.48,1.37,1.14,1.91,1.97s.97,1.9,1.3,3.18h-.02ZM378.04,618.37c-.47-1.17-1.12-2.02-1.96-2.53s-1.82-.64-2.91-.36-1.92.87-2.48,1.75-.82,1.96-.81,3.23l8.16-2.07h0Z" style="fill:#e2e2e2; stroke-width:0px;"/><path d="M392.1,625.02l-2.32.59c-.02-.12-.37-1.55-1.05-4.3-.68-2.75-1.26-5.02-1.72-6.83l-1.12-4.4c-.45-1.78-.98-3.77-1.58-5.96l2.32-.59c.36,1.51.79,3.26,1.28,5.25.49,1.99.91,3.66,1.25,5.01.75,2.96,1.42,5.55,2,7.77.58,2.21.89,3.37.92,3.48h0Z" style="fill:#e2e2e2; stroke-width:0px;"/><path d="M407.63,616.5c.18.73.17,1.41-.04,2.07s-.55,1.23-1.03,1.73c-.5.52-1.14.98-1.91,1.39s-1.65.73-2.64.98c-.48.12-.98.23-1.51.31-.52.08-.83.13-.9.14l-.57-1.9c.09-.01.44-.07,1.04-.17.61-.1,1.2-.24,1.79-.38.34-.09.78-.23,1.3-.42.53-.19.94-.42,1.25-.66.43-.34.73-.69.89-1.07s.18-.78.07-1.22c-.1-.4-.29-.7-.56-.9s-.62-.37-1.03-.51c-.46-.16-1.07-.31-1.82-.44-.76-.13-1.4-.27-1.93-.42-.75-.23-1.38-.58-1.86-1.04s-.82-1.05-1.01-1.78-.15-1.43.1-2.1c.25-.68.67-1.28,1.24-1.8.5-.46,1.09-.83,1.76-1.11s1.34-.51,2-.68c.6-.15,1.09-.27,1.48-.35s.61-.13.67-.14l.65,1.91c-.07.02-.38.08-.92.17s-1.13.23-1.77.39c-.45.11-.87.26-1.25.45s-.71.38-.95.6c-.36.32-.61.66-.71,1-.1.35-.12.66-.05.95.1.39.31.69.64.92.32.22.68.38,1.08.49.46.13,1.08.27,1.86.42s1.35.27,1.71.39c.8.25,1.44.6,1.93,1.04.49.44.83,1.02,1.02,1.74h-.03Z" style="fill:#e2e2e2; stroke-width:0px;"/><path d="M444.79,610.13l-.82,2.02-5.78-2.47h-.03c-.89,1.72-1.81,3-2.73,3.87-.93.86-2.03,1.46-3.3,1.78-1.81.46-3.43.35-4.88-.36-1.45-.69-2.37-1.88-2.8-3.55-.29-1.15-.22-2.32.2-3.52.42-1.21,1.03-2.31,1.82-3.33v-.03c-.91-.42-1.63-.93-2.18-1.51-.55-.59-.93-1.29-1.14-2.12-.36-1.42-.05-2.75.91-4.01.97-1.25,2.21-2.07,3.73-2.45,1.72-.44,3.23-.35,4.53.27,1.3.62,2.13,1.68,2.51,3.18.27,1.05.23,2.13-.14,3.25s-1.04,2.39-2.04,3.83v.03c.76.35,1.61.73,2.57,1.15s1.6.7,1.94.85h.03c.66-1.6,1.23-3.17,1.71-4.74s.75-2.41.79-2.53l2.1.71c-.1.27-.47,1.27-1.12,2.99s-1.23,3.15-1.72,4.27v.03s5.84,2.38,5.84,2.38h0ZM436.37,609v-.03c-1.01-.44-2.24-.98-3.68-1.61-1.44-.64-2.96-1.31-4.54-2.04h-.03c-.79,1.27-1.25,2.3-1.37,3.08-.13.8-.08,1.59.12,2.39.28,1.1.88,1.87,1.81,2.32s1.93.54,3.02.26,2.05-.81,2.78-1.57,1.36-1.69,1.9-2.81h-.02ZM432.59,598.74c-.25-1-.77-1.72-1.55-2.16s-1.72-.52-2.8-.25c-1,.25-1.76.75-2.29,1.5s-.68,1.58-.45,2.48c.19.75.74,1.42,1.64,1.99.9.57,2.2,1.23,3.89,1.95h.03c.82-1.14,1.33-2.14,1.54-3.01s.2-1.7,0-2.52h.01Z" style="fill:#e2e2e2; stroke-width:0px;"/><path d="M477.44,602.09l-1.45,1.97c-.27-.17-1.25-.82-2.94-1.97-1.69-1.14-4.28-2.93-7.8-5.35l-.03-.13c.36-.19.81-.53,1.34-1.02s.96-.97,1.29-1.46c.28-.43.49-.92.64-1.47.14-.56.11-1.25-.1-2.07-.19-.75-.55-1.36-1.09-1.79-.54-.44-1.18-.7-1.94-.78-.62-.07-1.25-.05-1.89.06-.64.11-1.22.24-1.75.37l-.81.21-.41.1c.45,1.87.86,3.51,1.21,4.93l.76,3.01c.34,1.34.8,3.16,1.41,5.45.6,2.3.98,3.74,1.14,4.32l-2.42.62c-.14-.59-.41-1.73-.82-3.42-.41-1.69-.94-3.8-1.57-6.31l-.69-2.71c-.34-1.32-.97-3.72-1.91-7.2.09-.02.58-.16,1.45-.4s1.68-.46,2.42-.65c.85-.22,1.69-.38,2.51-.48s1.66-.1,2.51.04c1.07.16,1.99.57,2.76,1.22.77.65,1.29,1.52,1.56,2.59.35,1.39.22,2.65-.4,3.79s-1.25,2.03-1.9,2.67l.02.07c1.74,1.22,3.62,2.47,5.64,3.72,2.03,1.26,3.11,1.94,3.26,2.04v.02Z" style="fill:#e2e2e2; stroke-width:0px;"/><path d="M493.31,590.82l-10.61,2.7c.27,1.03.74,1.92,1.39,2.68s1.49,1.31,2.53,1.65c.66.22,1.37.33,2.14.32s1.66-.13,2.68-.39c.56-.14,1.07-.29,1.52-.44s.74-.24.84-.27l.23,2.01c-.07.03-.33.11-.76.25s-.95.28-1.55.43c-1.56.4-2.98.54-4.24.43s-2.36-.43-3.28-.95c-.78-.44-1.52-1.06-2.2-1.88-.68-.82-1.17-1.79-1.46-2.92s-.37-2.17-.26-3.14.39-1.94.86-2.89c.41-.81.99-1.51,1.76-2.08s1.6-.98,2.53-1.22,1.75-.3,2.53-.21,1.49.36,2.15.78c.74.48,1.37,1.14,1.91,1.97s.97,1.9,1.3,3.18h-.02ZM490.62,589.76c-.47-1.17-1.12-2.02-1.96-2.53s-1.82-.64-2.91-.36-1.92.87-2.48,1.75-.82,1.96-.81,3.23l8.16-2.07h0Z" style="fill:#e2e2e2; stroke-width:0px;"/><path d="M509.2,590.69c.18.73.17,1.41-.04,2.07s-.55,1.23-1.03,1.73c-.5.52-1.14.98-1.91,1.39s-1.65.73-2.64.98c-.48.12-.98.23-1.51.31s-.83.13-.9.14l-.57-1.9c.09-.01.44-.07,1.04-.17s1.2-.24,1.79-.38c.34-.09.78-.23,1.3-.42s.94-.42,1.25-.66c.44-.34.73-.69.89-1.07s.18-.78.07-1.22c-.1-.4-.29-.7-.56-.9s-.62-.37-1.03-.51c-.46-.16-1.06-.32-1.82-.44s-1.4-.27-1.93-.42c-.75-.23-1.38-.58-1.86-1.04s-.82-1.05-1.01-1.78-.15-1.43.1-2.1.67-1.28,1.24-1.8c.5-.46,1.09-.83,1.76-1.11s1.34-.51,2-.68c.6-.15,1.09-.27,1.48-.35s.61-.13.67-.14l.65,1.91c-.07.02-.38.08-.92.17s-1.13.23-1.77.39c-.45.11-.87.26-1.25.45s-.71.38-.95.6c-.36.32-.61.66-.71,1-.11.35-.12.66-.05.95.1.39.31.69.64.92.32.22.68.38,1.08.49.46.13,1.08.27,1.86.42s1.35.27,1.71.39c.8.25,1.44.6,1.93,1.04s.83,1.02,1.02,1.74h-.03Z" style="fill:#e2e2e2; stroke-width:0px;"/><path d="M525.04,589.3l.21,1.93c-.06.03-.23.08-.5.16s-.5.15-.69.2c-2,.51-3.63.48-4.86-.1s-2.08-1.73-2.51-3.46c-.28-1.09-.57-2.25-.87-3.5s-.69-2.79-1.16-4.62l-2.47.63-.44-1.71,2.6-.66-.88-3.47,2.12-.54.88,3.47,5.25-1.33.44,1.71-5.25,1.33c.05.2.21.82.45,1.84s.43,1.77.56,2.27l.93,3.64c.32,1.27.9,2.1,1.72,2.49s1.96.4,3.38.04l.63-.16.47-.12v-.03Z" style="fill:#e2e2e2; stroke-width:0px;"/><path d="M540.29,578.46c.62,2.42,1.12,4.4,1.49,5.93.37,1.52.58,2.35.61,2.47-.09.03-.54.19-1.33.46s-1.83.56-3.11.89c-.8.2-1.63.33-2.48.39s-1.6.03-2.26-.1c-.87-.16-1.63-.5-2.28-1s-1.08-1.19-1.3-2.08c-.24-.93-.15-1.81.24-2.63s1.06-1.58,1.97-2.25c.57-.42,1.35-.88,2.36-1.35s2.18-.95,3.51-1.4c-.25-.75-.6-1.32-1.05-1.74s-1.02-.65-1.71-.76c-.47-.07-.99-.07-1.53,0s-1.17.18-1.87.36c-.44.11-.81.22-1.11.31s-.71.23-1.24.39l-.26-2.01c.15-.05.43-.14.86-.28s1.01-.3,1.77-.49c1.15-.29,2.21-.43,3.18-.42s1.82.2,2.55.59c.69.37,1.27.89,1.74,1.56s.89,1.73,1.25,3.14h0ZM538.94,582.57l-.32-1.26c-.13-.51-.28-1.1-.47-1.76-.42.13-1.16.4-2.2.84s-1.89.88-2.54,1.34c-.5.34-.9.77-1.23,1.29s-.41,1.09-.25,1.69c.17.66.48,1.16.95,1.46s1.04.5,1.72.55c.52.05,1.08.03,1.68-.04s1.22-.19,1.87-.36c.2-.05.44-.11.71-.2s.57-.17.89-.26l-.25-.97-.59-2.33.03-.02Z" style="fill:#e2e2e2; stroke-width:0px;"/><path d="M562.74,581.66l-2.24.57-.43-1.7h-.02c-.57.61-1.3,1.29-2.21,2.02s-1.85,1.22-2.84,1.47c-1.35.34-2.5.21-3.47-.4s-1.64-1.64-2-3.08c-.2-.78-.44-1.71-.69-2.8s-.45-1.87-.58-2.36c-.23-.89-.51-1.98-.88-3.29-.36-1.31-.56-2.03-.6-2.2l2.32-.59c.03.13.2.83.51,2.12s.56,2.31.75,3.07c.17.67.39,1.52.66,2.52s.46,1.72.56,2.14c.31,1.15.73,1.95,1.25,2.39s1.2.56,2.05.34,1.77-.7,2.69-1.44,1.58-1.34,1.99-1.81c-.03-.12-.17-.66-.39-1.63s-.53-2.17-.9-3.61c-.26-1.02-.58-2.25-.97-3.68s-.6-2.21-.63-2.33l2.32-.59c.04.17.17.72.39,1.66s.61,2.53,1.19,4.78c.32,1.26.6,2.37.86,3.32s.7,2.65,1.34,5.08h-.02Z" style="fill:#e2e2e2; stroke-width:0px;"/><path d="M576.36,564.23c-.51.27-1.26.75-2.26,1.44s-2.15,1.57-3.42,2.61c.03.11.15.6.36,1.48s.41,1.69.6,2.44c.29,1.15.65,2.52,1.08,4.1s.66,2.46.71,2.64l-2.32.59c-.04-.17-.17-.72-.39-1.65-.22-.93-.61-2.52-1.18-4.77-.23-.91-.55-2.18-.99-3.81-.44-1.63-.83-3.17-1.22-4.61l2.27-.58.57,2.23h.02c.95-.89,1.9-1.71,2.85-2.45s1.74-1.27,2.34-1.6l.96,1.95h.02Z" style="fill:#e2e2e2; stroke-width:0px;"/><path d="M593.75,564.88c.62,2.42,1.12,4.4,1.49,5.93s.58,2.35.61,2.47c-.09.03-.54.19-1.33.46s-1.83.56-3.11.89c-.8.2-1.63.33-2.48.39s-1.6.03-2.26-.1c-.87-.16-1.63-.5-2.28-1-.64-.5-1.08-1.19-1.3-2.08-.24-.93-.15-1.81.24-2.63s1.06-1.58,1.97-2.25c.57-.42,1.35-.88,2.36-1.35s2.18-.95,3.51-1.4c-.25-.75-.6-1.32-1.05-1.74s-1.02-.65-1.71-.76c-.47-.07-.99-.07-1.53,0s-1.17.18-1.87.36c-.44.11-.81.22-1.11.31s-.71.23-1.24.39l-.26-2.01c.15-.05.43-.14.86-.28s1.01-.3,1.77-.49c1.15-.29,2.21-.43,3.18-.42s1.82.2,2.55.59c.69.37,1.27.89,1.74,1.56s.89,1.73,1.25,3.14h0ZM592.4,568.99l-.32-1.26c-.13-.51-.28-1.1-.47-1.76-.42.13-1.16.4-2.2.84s-1.89.88-2.54,1.34c-.5.34-.9.77-1.23,1.29s-.41,1.09-.25,1.69c.17.66.48,1.16.95,1.46s1.04.5,1.72.55c.52.05,1.08.03,1.68-.04s1.22-.19,1.87-.36c.2-.05.44-.11.71-.2s.57-.17.89-.26l-.25-.97-.59-2.33.03-.02Z" style="fill:#e2e2e2; stroke-width:0px;"/><path d="M616.28,568.05l-2.32.59c-.06-.27-.28-1.19-.65-2.72s-.61-2.49-.71-2.85l-.57-2.25c-.25-1-.45-1.72-.57-2.17-.31-1.12-.73-1.87-1.26-2.26s-1.29-.46-2.27-.21c-.6.15-1.29.52-2.08,1.09s-1.57,1.25-2.33,2.03c.03.11.18.69.42,1.75s.49,2.03.72,2.89c.29,1.14.65,2.5,1.08,4.1.43,1.59.66,2.44.68,2.51l-2.32.59c-.02-.07-.16-.67-.43-1.8s-.69-2.82-1.25-5.04l-.92-3.6c-.35-1.38-.74-2.84-1.18-4.39l2.29-.58.41,1.69.03.02c1.17-1.13,2.18-1.97,3.01-2.51s1.56-.89,2.16-1.05c1.25-.32,2.35-.18,3.32.42s1.61,1.57,1.96,2.94c.31,1.23.58,2.3.79,3.2s.39,1.63.54,2.18c.23.89.52,2,.88,3.32.37,1.32.56,2.03.57,2.1v.02Z" style="fill:#e2e2e2; stroke-width:0px;"/><path d="M632.17,562.07l.21,1.93c-.06.03-.23.08-.5.16s-.5.15-.69.2c-2,.51-3.63.48-4.86-.1s-2.08-1.73-2.51-3.46c-.28-1.09-.57-2.25-.87-3.5s-.69-2.79-1.16-4.62l-2.47.63-.44-1.71,2.6-.66-.88-3.47,2.12-.54.88,3.47,5.25-1.33.44,1.71-5.25,1.33c.05.2.21.82.45,1.84s.43,1.77.56,2.27l.93,3.64c.32,1.27.9,2.1,1.72,2.49s1.96.4,3.38.04l.63-.16.47-.12v-.03Z" style="fill:#e2e2e2; stroke-width:0px;"/><path d="M646.34,555.83c.18.73.17,1.41-.04,2.07s-.55,1.23-1.03,1.73c-.5.52-1.14.98-1.91,1.39s-1.65.73-2.64.98c-.48.12-.98.23-1.51.31s-.83.13-.9.14l-.57-1.9c.09-.01.44-.07,1.04-.17s1.2-.24,1.79-.38c.34-.09.78-.23,1.3-.42s.94-.42,1.25-.66c.44-.34.73-.69.89-1.07s.18-.78.07-1.22c-.1-.4-.29-.7-.56-.9s-.62-.37-1.03-.51c-.46-.16-1.06-.32-1.82-.44s-1.4-.27-1.93-.42c-.75-.23-1.38-.58-1.86-1.04s-.82-1.05-1.01-1.78-.15-1.43.1-2.1.67-1.28,1.24-1.8c.5-.46,1.09-.83,1.76-1.11s1.34-.51,2-.68c.6-.15,1.09-.27,1.48-.35s.61-.13.67-.14l.65,1.91c-.07.02-.38.08-.92.17-.54.1-1.13.23-1.77.39-.45.11-.87.26-1.25.45s-.71.38-.95.6c-.36.32-.61.66-.71,1-.11.35-.12.66-.05.95.1.39.31.69.64.92.32.22.68.38,1.08.49.46.13,1.08.27,1.86.42s1.35.27,1.71.39c.8.25,1.44.6,1.93,1.04s.83,1.02,1.02,1.74h-.03Z" style="fill:#e2e2e2; stroke-width:0px;"/><line x1="267.69" y1="568.12" x2="291.36" y2="661.25" style="fill:none; stroke:#919395; stroke-miterlimit:10; stroke-width:.75px;"/></g></svg>